<?xml version="1.0" encoding="utf-8"?>
<!-- Generator: Adobe Illustrator 23.0.1, SVG Export Plug-In . SVG Version: 6.00 Build 0)  -->
<svg version="1.1" id="Livello_1" xmlns="http://www.w3.org/2000/svg" x="0px"
     y="0px"
     viewBox="0 0 224.4 527.3" style="enable-background:new 0 0 224.4 527.3;" xml:space="preserve">
<style type="text/css">
	.st0{fill:#262B40;}
</style>
    <title>bee_falling</title>
    <g>
	<g id="XMLID_1_">
		<g>
			<path class="st0" d="M206.5,420.4c24.4,25.3,23.7,65.6-1.6,90c-2.4,2.3-5,4.5-7.8,6.4c-20.1,14.1-48.3,14-69.1-0.1
				c-2-1.3-4.4-2.1-6.8-2.1c-27-0.2-54,0-81-0.1c-19.6-0.1-35.3-12.6-39.3-31.6C-1,474.1,0.2,465,4.2,457c0.6-1.5,0.6-3.1,0-4.6
				c-12.9-26.9,5.5-56.8,35.3-57.2c4.7-0.1,9.5-0.1,14.2,0c2,0.1,3-0.7,3.4-2.5c0.3-1.5,0.5-2.9,0.6-4.4c0-8.3,0-16.5,0-24.7v-4.3
				c10.2,0,19.9,0,29.6,0c1.7,0,3.5-0.2,5.1-0.8c24.9-8.9,47.1-4.1,66,14C174.8,388.1,190.7,404.2,206.5,420.4z M202.3,473.4
				c3.1-16.3-2-30.3-14.4-41.2l-57.6,57.7c11.7,12.6,25.9,18.1,42.9,13.9C188.8,499.6,199.2,489.5,202.3,473.4z M168,412.3l-14-13.7
				l-57.1,57.1l14.1,13.7C129.9,450.5,149,431.4,168,412.3z M79.1,434.6l54.6-54.4c-17.5-9.8-40.2-4.5-52.6,12.1
				C72.3,404,71.4,427.1,79.1,434.6z M102.6,492.1l0.5-0.8c-11.5-11.4-23-22.9-34.5-34.3c-0.8-0.7-1.9-1-3-1
				c-9.1-0.1-18.3-0.4-27.4,0.1c-3.8,0.4-7.5,1.8-10.5,4.1c-6.1,4.4-8,12.5-5.5,19.6c2.5,7.3,9.5,12.2,17.2,12.2c9,0.1,18,0,27,0
				L102.6,492.1z M55.4,434.8c-1-6.5-2-12.8-3.1-19.2c-4.2,0-8.4,0-12.7,0c-12.6,0.1-20.3,10.3-17,22.9
				C33.1,433.1,44.5,435.7,55.4,434.8z"/>
            <path class="st0" d="M179,471.1c2.5,2.7,1.7,4.6-3.6,10.4c1,1.3,2.1,2.6,3.1,3.9c2.2,2.9,2.4,6,0.4,7.8c-2,1.8-5.7,1.7-8.1-0.5
				c-0.9-0.9-1.8-1.9-2.5-3c-3.9,2.5-7.3,8.1-11.9,3c-3.8-4.3,0.8-7.3,3.7-10.5c-2.7-3.3-7.6-6.2-3.3-11.2c2.2-2.5,5.2-1.5,11,3.4
				C173.7,469.2,176.5,468.4,179,471.1z"/>
            <path class="st0" d="M181.3,248.1c0,8.5-4.4,14-11.2,14.1c-6.1,0.1-10.5-5.2-10.5-12.5s3.9-11.8,10.1-11.8
				C176.2,237.8,181.3,242.4,181.3,248.1z"/>
            <path class="st0" d="M173.6,205.5c0.2,5.6-4.6,10.1-10.7,10.2c-7.3-0.2-10.7-6.1-11.6-13.3c-0.7-5.6,4.4-10.5,9.9-10.5
				C167.4,191.8,173.4,198.5,173.6,205.5z"/>
            <path class="st0" d="M155.6,282c5.8,0.2,10.3,4.8,10.4,10.6c-0.1,6.3-6.5,13.1-12.2,13.1c-5.7-0.3-10.2-5-10.3-10.7
				C143.6,288.3,149.5,282,155.6,282z"/>
            <path class="st0" d="M132.7,155c6.4,0.1,13.2,6.8,13.2,13c-0.1,5.9-4.9,10.5-10.7,10.4h-0.1c-6.1,0-12.6-6.7-12.7-12.9
				c-0.2-5.6,4.3-10.3,9.9-10.5C132.4,155,132.5,155,132.7,155z"/>
            <path class="st0" d="M129,314.4c2.5,3,2.9,7.2,1,10.6c-1.9,4.3-6.3,6.9-11,6.6c-2.3-0.6-4.7-0.7-6.8-1.8c-3.9-2-6.2-5.5-5.9-10
				c0.3-4.4,3-7.3,7-8.9C118.9,308.6,125.7,310.1,129,314.4z"/>
            <path class="st0" d="M117,10.8c0.3,5.8-8.4,12.2-13.2,12.3C98,23,93.4,18.5,93,12.7C93,6.5,100.1,0,106.9,0
				C112.7,0,116.7,4.7,117,10.8z"/>
            <path class="st0" d="M95.9,126.4c6.1,0,12.9,7.2,12.9,13.7c0,5.4-5.1,10.3-10.8,10.2c-5.8-0.1-12.6-7.1-12.7-13.1
				C85.4,131.4,90,126.7,95.9,126.4z"/>
            <path class="st0" d="M90.6,49.2c0.1,7.6-5.2,13.7-11.9,13.8c-4.9,0.1-9.9-5.6-10-11.3c0-7,5.1-12.8,11.4-12.9
				c5.7-0.1,10.3,4.3,10.5,10C90.6,48.9,90.6,49.1,90.6,49.2z"/>
            <path class="st0" d="M85.9,97.4c0.1,5.6-3.3,10.3-7.6,11.3c-4.8,1-9.7-1.6-11.7-6.1c-1.7-4.4-3.4-9,0-13.5
				c2.5-3.3,5.8-5,10.1-4.3c4,0.5,7.2,3.4,8.1,7.3C85.3,93.8,85.6,95.6,85.9,97.4z"/>
		</g>
        <g>
		</g>
	</g>
</g>
</svg>
