<svg xmlns="http://www.w3.org/2000/svg" viewBox="0 0 365.57 382.45">
    <defs>
        <style>.cls-1{fill:#030302;}.cls-2{fill:#fcd869;}.cls-3{fill:#3d3d3d;}.cls-4{fill:#fbc856;}</style>
    </defs>
    <title>deadbeefat</title>
    <g id="Livello_2" data-name="Livello 2">
        <g id="Livello_1-2" data-name="Livello 1">
            <path class="cls-1"
                  d="M281.91,90.43a69.16,69.16,0,0,1-1.58,15.92c-.7,2.93,0,4.53,2.69,6.21,17,10.73,31.43,24.16,42.29,41.23s16.83,36.06,18.63,56.25a6.58,6.58,0,0,0,3.08,5.48c4.94,3.38,9.76,6.95,14.57,10.53,5.53,4.12,5.27,10.08-.64,13.66q-8,4.83-16.17,9.39a5.31,5.31,0,0,0-2.88,4c-4.35,23.18-13.8,43.91-29.83,61.4-1.37,1.5-1.19,2.42.1,3.69a27.88,27.88,0,0,1,2.9,3.42,7.46,7.46,0,0,1-.89,10.16c-3,2.66-7.07,2.55-10.2-.19-1.66-1.45-2.61-4.56-4.66-4.39-1.89.15-3.57,2.49-5.37,3.83a160.18,160.18,0,0,1-50.43,25.22c-2.59.77-3.54,1.65-2,4.21a16.48,16.48,0,0,1,1.49,3.82,7.36,7.36,0,0,1-4.27,9.21,7.22,7.22,0,0,1-9.3-3.32,33.22,33.22,0,0,1-2.57-6.2c-.72-2.36-2-3-4.36-2.46a233.58,233.58,0,0,1-33.71,4.75,236,236,0,0,1-26.59.68c-2.61-.09-4,.24-3.72,3.27a25.88,25.88,0,0,1-.42,5.6,7.28,7.28,0,0,1-7.3,6.64,7.41,7.41,0,0,1-7.36-6.2,12.37,12.37,0,0,1-.12-3c.37-7.19.38-7.16-6.63-7.93a172.66,172.66,0,0,1-62.33-18.55c-2.3-1.21-3.46-1-4.53,1.33a24.67,24.67,0,0,1-3,4.76,7.41,7.41,0,0,1-9.39,2.06A7.5,7.5,0,0,1,54,345.63c.18-.46.41-.91.63-1.36,1.14-2.3,4.12-4.49,3.33-6.71s-3.83-3.29-5.88-4.9C22.26,309.25,5.68,278.39,1.19,241-3,206.24,3.72,173.7,22.31,143.86c1.16-1.86.74-3-.19-4.63-16.59-29.1-20.45-59.6-8-91C23.63,24.43,40.82,8,66.34,2c23.3-5.43,44.46.47,63.59,14.39a86.1,86.1,0,0,1,15.36,14.24c1.6,1.9,2.36,1.87,4.16.17,13.29-12.58,28.73-20.82,47-23.58a71.52,71.52,0,0,1,73.35,35.16C278.17,56.78,282,71.57,281.91,90.43ZM18.17,252.19l-.07.05a109,109,0,0,0,17.36,41c21,30.61,50.87,47.45,86.62,54.63,26.43,5.31,53.09,5.46,79.78,2.09,7.65-1,15.34-1.92,22.71-4.41a166.8,166.8,0,0,0,53.59-21.77,107.69,107.69,0,0,0,28.76-26.43A101.66,101.66,0,0,0,326.73,252c1.31-3.57,1.28-7.34,1.71-11.05,2.44-20.5,1.31-40.64-6.23-60.07a106.15,106.15,0,0,0-35.23-47c-10.52-8.74-22.46-15.11-34.91-20.58-6-2.64-12-5.45-18.52-6.56l.21-.13-.21.12a.71.71,0,0,0-.65-.84A253.61,253.61,0,0,0,180,95.12c-2.33-.21-3.25.63-4.1,2.64a123.86,123.86,0,0,0-7.35,25.07c-.9,4.78-4.52,7.51-8.68,6.8-4.38-.76-6.83-4.76-6-9.6a109.43,109.43,0,0,1,6.3-23c1.15-2.8.36-3.26-2.34-3.26A211.73,211.73,0,0,0,125,96.07a149.4,149.4,0,0,0-32.66,8.87c-1.78.71-2.15,1.47-1.45,3.34a103.72,103.72,0,0,0,7,15.25c2.43,4.25,1.44,8.56-2.23,10.75-3.85,2.3-8.11,1-10.76-3.38a77.3,77.3,0,0,1-7.25-15.16c-.81-2.39-1.5-3.1-4-1.57a122.68,122.68,0,0,0-39.61,38.64C20.79,173.59,15.47,196.72,15,221.11c-.19,9.61.31,19.22,2.72,28.61A3.46,3.46,0,0,0,18.17,252.19ZM87,90.91a175.23,175.23,0,0,1,31.16-9.09c1.57-.31,1.5-1.31,1.8-2.37a104.8,104.8,0,0,1,15.8-33.14c1.39-1.9.93-2.86-.33-4.38a76.24,76.24,0,0,0-28.29-21.64C81.43,9,53.06,16,36.77,38.17c-19.26,26.16-18.91,60-4.68,88.34,1.12,2.23,1.74,1.57,3,.15A130.09,130.09,0,0,1,70.2,99c2-1.1,2.57-2.3,2.2-4.41a73.47,73.47,0,0,1-.86-16.43,4.15,4.15,0,0,0-2.06-4.23,16.42,16.42,0,0,1-6.16-18.86c2.46-7.35,9-12.18,16.28-12.1,7.74.09,14.2,5.35,16.48,13.4,1.83,6.45-1.3,14.23-7.45,18.11A4,4,0,0,0,86.34,78,70.76,70.76,0,0,0,87,90.91Zm49.2-11.5c10.31-1.14,20.29-.64,30.26-.57a3.82,3.82,0,0,0,3.83-2.16A72,72,0,0,1,180,63.93a4.57,4.57,0,0,0,1.27-4.86c-2.78-12.25,9.27-23.08,21.28-19.6,10.07,2.91,13.72,13.18,12.17,19.67-2.25,9.46-10.37,15-19.84,13.53-1.08-.17-2.11-.79-3.06.36-1.9,2.27-4.17,4.26-5.84,7.37a307.67,307.67,0,0,1,40.74,7.85,234.44,234.44,0,0,1,39,14.3,78.34,78.34,0,0,0-3.56-41.76C253,35.39,229,19,203.65,21.17,171.81,23.93,145.72,48.58,136.17,79.41Z"/>
            <path class="cls-2"
                  d="M17.71,249.72c-2.41-9.39-2.91-19-2.72-28.61.48-24.39,5.8-47.52,19.14-68.3a122.68,122.68,0,0,1,39.61-38.64c2.49-1.53,3.18-.82,4,1.57A77.3,77.3,0,0,0,85,130.9c2.65,4.35,6.91,5.68,10.76,3.38,3.67-2.19,4.66-6.5,2.23-10.75a103.72,103.72,0,0,1-7-15.25c-.7-1.87-.33-2.63,1.45-3.34A149.4,149.4,0,0,1,125,96.07a211.73,211.73,0,0,1,32.82-2.35c2.7,0,3.49.46,2.34,3.26a109.43,109.43,0,0,0-6.3,23c-.84,4.84,1.61,8.84,6,9.6,4.16.71,7.78-2,8.68-6.8a123.86,123.86,0,0,1,7.35-25.07c.85-2,1.77-2.85,4.1-2.64a253.61,253.61,0,0,1,52.89,10.7l.65.84.21-.12-.21.13c.21.84.37,1.7.65,2.52,10.38,29.73,14.87,60.43,15.31,91.82a392.58,392.58,0,0,1-9.95,91.67c-2.48,11.05-4.9,22.13-8.9,32.78a20.26,20.26,0,0,0-2.6.27,266,266,0,0,1-68.28,6.64c-18.1-.66-35.87-2.63-53.31-7.61-20.78-5.93-39.58-15.66-55.82-29.9a122.29,122.29,0,0,1-30.16-39.59c-.54-1.12-.62-2.8-2.39-3l.07-.05C18.54,251.27,18.67,250.39,17.71,249.72Zm113.71.54v0c-9.37,0-18.73-.06-28.09,0-5,0-8.19,3-8.28,7.27s3.28,7.67,8.33,7.69c18.72.08,37.45,0,56.18,0a8.38,8.38,0,0,0,4.65-1.19,7.3,7.3,0,0,0,3.41-8.06,7.2,7.2,0,0,0-7.36-5.71C150.64,250.19,141,250.26,131.42,250.26Zm45.08-54.71c-3.46,0-5.72,1.36-7.1,4a7,7,0,0,0,.85,8.07c1.49,1.83,4.33,3.33,4.56,5.22.26,2.29-3.06,3.55-4.54,5.51a7.46,7.46,0,0,0,10.54,10.46c1.82-1.5,3.41-4.39,5.24-4.5,2.19-.15,3.52,3.13,5.49,4.62a7.53,7.53,0,0,0,9.92-.5,7.23,7.23,0,0,0,.64-9.86c-1.53-1.94-4.59-3.69-4.59-5.52s3.05-3.6,4.58-5.54a7.27,7.27,0,0,0-.61-9.88,7.55,7.55,0,0,0-9.91-.49,17.32,17.32,0,0,0-3.22,3.12c-1.66,2.23-2.87,1.82-4.54-.07C181.78,197.87,179.71,195.34,176.5,195.55Zm-109.36,0a7.53,7.53,0,0,0-7.13,4,6.94,6.94,0,0,0,.67,7.75c1.51,2,4.48,3.55,4.71,5.55.28,2.4-3.26,3.67-4.73,5.81a7.48,7.48,0,0,0,.89,9.88,7.4,7.4,0,0,0,9.61.49c2-1.53,3.56-4.5,5.54-4.7s3.52,3.15,5.51,4.64a7.56,7.56,0,0,0,9.91-.58,7.25,7.25,0,0,0,.58-9.86c-1.53-1.93-4.58-3.7-4.56-5.51s3.06-3.6,4.59-5.54a7.29,7.29,0,0,0-.37-9.59,7.51,7.51,0,0,0-9.86-1A16.91,16.91,0,0,0,79,200.26c-1.68,2.2-2.89,1.82-4.56-.09C72.39,197.85,70.31,195.34,67.14,195.54ZM66.29,264c6.76,0,10.5-3.94,10.79-10.57a10.82,10.82,0,0,0-10.7-11.08c-5.63-.2-11,5.43-11.13,11S61,265.15,66.29,264Zm130.25,0a10.76,10.76,0,0,0,11-10.59c0-5.34-5.65-11.23-10.62-11.13a10.93,10.93,0,0,0-11.15,11.12C185.71,259.74,190,264,196.54,264Z"/>
            <path class="cls-3"
                  d="M230.66,325.46c4-10.65,6.42-21.73,8.9-32.78A392.58,392.58,0,0,0,249.51,201c-.44-31.39-4.93-62.09-15.31-91.82-.28-.82-.44-1.68-.65-2.52,6.55,1.11,12.52,3.92,18.52,6.56,12.45,5.47,24.39,11.84,34.91,20.58,3.32,16.76,6,33.59,7,50.68a393.23,393.23,0,0,1-2.88,75.76c-1.85,13.84-4.69,27.5-7.4,41.18q-2.78,11.19-5.56,22.38a166.8,166.8,0,0,1-53.59,21.77Z"/>
            <path class="cls-2"
                  d="M283.72,301.43c2.71-13.68,5.55-27.34,7.4-41.18A393.23,393.23,0,0,0,294,184.49c-1-17.09-3.7-33.92-7-50.68a106.15,106.15,0,0,1,35.23,47c7.54,19.43,8.67,39.57,6.23,60.07-.43,3.71-.4,7.48-1.71,11.05a32,32,0,0,0-1.91,3.16,110,110,0,0,1-32.24,40.41C289.79,297.74,287.4,300.56,283.72,301.43Z"/>
            <path class="cls-4"
                  d="M230.66,325.46l-6.09,20.12c-7.37,2.49-15.06,3.45-22.71,4.41-26.69,3.37-53.35,3.22-79.78-2.09-35.75-7.18-65.6-24-86.62-54.63a109,109,0,0,1-17.36-41c1.77.23,1.85,1.91,2.39,3a122.29,122.29,0,0,0,30.16,39.59c16.24,14.24,35,24,55.82,29.9,17.44,5,35.21,6.95,53.31,7.61a266,266,0,0,0,68.28-6.64A20.26,20.26,0,0,1,230.66,325.46Z"/>
            <path class="cls-4"
                  d="M283.72,301.43c3.68-.87,6.07-3.69,8.86-5.89a110,110,0,0,0,32.24-40.41,32,32,0,0,1,1.91-3.16,101.66,101.66,0,0,1-19.81,45.41,107.69,107.69,0,0,1-28.76,26.43Q280.93,312.62,283.72,301.43Z"/>
            <path class="cls-4" d="M17.71,249.72c1,.67.83,1.55.46,2.47A3.46,3.46,0,0,1,17.71,249.72Z"/>
            <path class="cls-3" d="M233.55,106.66l-.65-.84A.71.71,0,0,1,233.55,106.66Z"/>
            <path class="cls-1"
                  d="M131.42,250.26c9.61,0,19.22-.07,28.84,0a7.2,7.2,0,0,1,7.36,5.71,7.3,7.3,0,0,1-3.41,8.06,8.38,8.38,0,0,1-4.65,1.19c-18.73,0-37.46.05-56.18,0-5,0-8.43-3.33-8.33-7.69s3.31-7.23,8.28-7.27c9.36-.08,18.72,0,28.09,0Z"/>
            <path class="cls-1"
                  d="M176.5,195.55c3.21-.21,5.28,2.32,7.31,4.64,1.67,1.89,2.88,2.3,4.54.07a17.32,17.32,0,0,1,3.22-3.12,7.55,7.55,0,0,1,9.91.49,7.27,7.27,0,0,1,.61,9.88c-1.53,1.94-4.58,3.69-4.58,5.54s3.06,3.58,4.59,5.52a7.23,7.23,0,0,1-.64,9.86,7.53,7.53,0,0,1-9.92.5c-2-1.49-3.3-4.77-5.49-4.62-1.83.11-3.42,3-5.24,4.5a7.46,7.46,0,0,1-10.54-10.46c1.48-2,4.8-3.22,4.54-5.51-.23-1.89-3.07-3.39-4.56-5.22a7,7,0,0,1-.85-8.07C170.78,196.91,173,195.52,176.5,195.55Z"/>
            <path class="cls-1"
                  d="M67.14,195.54c3.17-.2,5.25,2.31,7.28,4.63,1.67,1.91,2.88,2.29,4.56.09a16.91,16.91,0,0,1,3.52-3.34,7.51,7.51,0,0,1,9.86,1,7.29,7.29,0,0,1,.37,9.59c-1.53,1.94-4.57,3.68-4.59,5.54s3,3.58,4.56,5.51a7.25,7.25,0,0,1-.58,9.86,7.56,7.56,0,0,1-9.91.58c-2-1.49-3.39-4.86-5.51-4.64s-3.59,3.17-5.54,4.7a7.4,7.4,0,0,1-9.61-.49,7.48,7.48,0,0,1-.89-9.88c1.47-2.14,5-3.41,4.73-5.81-.23-2-3.2-3.59-4.71-5.55a6.94,6.94,0,0,1-.67-7.75A7.53,7.53,0,0,1,67.14,195.54Z"/>
            <path class="cls-4"
                  d="M66.29,264c-5.28,1.16-11.13-5.14-11-10.64s5.5-11.21,11.13-11a10.82,10.82,0,0,1,10.7,11.08C76.79,260.05,73.05,264,66.29,264Z"/>
            <path class="cls-4"
                  d="M196.54,264c-6.5,0-10.83-4.25-10.8-10.6a10.93,10.93,0,0,1,11.15-11.12c5-.1,10.59,5.79,10.62,11.13A10.76,10.76,0,0,1,196.54,264Z"/>
        </g>
    </g>
</svg>