<?xml version="1.0" encoding="utf-8"?>
<!-- Generator: Adobe Illustrator 23.0.1, SVG Export Plug-In . SVG Version: 6.00 Build 0)  -->
<svg version="1.1" id="Layer_1" xmlns="http://www.w3.org/2000/svg" x="0px"
     y="0px"
     viewBox="0 0 992 439.9" style="enable-background:new 0 0 992 439.9;" xml:space="preserve">
<style type="text/css">
	.st0{fill:#34200D;}
	.st1{fill:#DA6800;}
	.st2{fill:#9F5B01;}
	.st3{fill:#EDD9B0;}
	.st4{fill:#311E0B;}
	.st5{fill:#5F3602;}
	.st6{fill:#5E3501;}
	.st7{fill:#FEC704;}
	.st8{fill:#DA6801;}
	.st9{fill:#FE8006;}
	.st10{fill:#F8BD07;}
	.st11{fill:#3D2306;}
	.st12{fill:#DE771A;}
	.st13{fill:#383736;}
	.st14{fill:#FCFCFC;}
	.st15{fill:#FCA44D;}
</style>
    <title>beekeeping</title>
    <g>
	<path class="st0"
          d="M488.6,308.2c-4.7,0-8.6,2.5-12.3,4.9c-2.5,1.6-4.9,2.4-7.4,0.2c7.3-7.1,9.6-9.6,19.7-5.9L488.6,308.2z"/>
        <path class="st1" d="M474.2,126.3c0,9.2,0,18.4-0.1,27.6h-1.2h-16.6h-73.8v-27.6L474.2,126.3z M429.4,149.1c3.5,0,7.1-0.1,10.6,0
		c2.7,0.1,2.9-1.2,2.9-3.3c0-2.1-0.4-3.1-2.8-3.1c-7.2,0.1-14.4,0.1-21.6,0c-2.6,0-3.1,1.1-3.1,3.3c0,2.1,0.6,3.1,2.9,3.1
		C422.1,149.1,425.8,149.2,429.4,149.1L429.4,149.1z"/>
        <path class="st2" d="M474.2,126.3h-91.7c0-9.2,0-18.4,0-27.6l43.9-0.1h46.5l1.3,0L474.2,126.3z M429.2,116.8c3.5,0,7.1-0.1,10.6,0
		c2.4,0.1,3.3-0.7,3.2-3.1c-0.1-2.2-0.2-3.9-3.1-3.9c-7.1,0.1-14.2,0.1-21.2,0c-2.7,0-3.3,1.2-3.3,3.6c0,2.6,1.1,3.5,3.6,3.4
		C422.4,116.7,425.8,116.8,429.2,116.8z"/>
        <path class="st3" d="M60.2,348.4c-9.7,0-19.4,0-29.1,0c-7.8,0-13.3-5.6-13.3-13.4c0-17.2,0.3-34.4-0.1-51.5
		c-0.3-10.1,4.1-17.9,10.2-25.1c1.3-1.5,2.8-2.8,2.4-5c-0.4-2.6,0.8-3.4,3.3-3.3c17.6,0.1,35.2,0.1,52.8,0c2.6,0,4.1,0.7,3.7,3.6
		c-0.2,1.7,0.7,2.9,1.8,4.1c7.2,8.3,11.5,17.4,11,28.9c-0.6,15.4-0.3,31-0.1,46.5c0.1,9.1-5.8,16.1-15.5,15.6
		C78.3,348,69.3,348.4,60.2,348.4z M60.2,342h25.5c8.2,0,10-1.8,10-9.8c0-16.3-0.3-32.5,0.1-48.8c0.3-8.7-3.8-15-8.8-21.2
		c-1.3-1.7-3-2.2-5.2-2.2c-14.6,0.1-29.1,0-43.7,0c-1.3,0-2.7-0.2-3.7,0.9c-5.3,5.5-10.1,11.4-10.2,19.4
		c-0.3,17.7-0.1,35.4-0.1,53.1c0,6.1,2.6,8.5,8.7,8.5C42.1,342,51.1,342,60.2,342L60.2,342z"/>
        <path class="st2" d="M472.9,153.9h1.2c0.1,8.6,0.1,17.3,0.2,25.9c0,0.9,0.2,2.3-1.1,2.1c-3.4-0.6-6.6,1.2-10.1,0.5
		c-3.8-0.8-7.8-0.4-11.7-0.5c0-0.5,0.1-1,0.1-1.6c0.1-5.1,0.1-5.1-5-5.1H414c-6.6,0-6.6,0-6.4,6.8c-7.4,0-14.9,0-22.3,0.1
		c-2.2,0-3-0.5-2.9-2.8c0.2-8.2,0.1-16.4,0.2-24.7c23.4,0,46.8,0,70.1,0c1.3,0,2.6,0.4,3.7-0.7h3.1
		C463.9,155,468.5,155.1,472.9,153.9z"/>
        <path class="st1" d="M430.4,98.7h-4c-1.2-1.2-2.7-0.7-4.1-0.7c-13.3,0-26.5,0-39.8,0l-0.2-25.2h92c-0.1,8.7-0.2,17.3-0.2,26l-1.3,0
		c-0.8-0.9-1.9-0.7-2.9-0.7h-36.7C432.3,98,431.2,97.8,430.4,98.7z M429.3,81.5c-3,0-5.4,2.4-5.4,5.4c0,3,2.4,5.4,5.4,5.4
		c3,0,5.4-2.4,5.4-5.4C434.7,84,432.3,81.5,429.3,81.5z"/>
        <path class="st4" d="M245,7.8c5.6,0.6,11.1,1.7,16.8,0.5c4.7-1.1,5.5-2.9,3.1-7.3c4.3-0.8,7.9,0.2,10.6,3.4c1.1,1.3,2,1.8,3.6,1.1
		c2.4-1,5.1-0.7,7.1,0.8c1.8,1.3,4.2,1.5,6.2,0.6c4.3-1.6,8.9-2.2,13.5-1.9c2.3,0.1,4.7,0.5,6.9-0.6c1.2-0.6,2.3,0.2,2.9,1.3
		c0.5,0.8,0.4,1.9-0.2,2.6c-0.8,1.1-1.9,1.2-3.1,0.8c-5.4-1.5-11.2-1.3-16.6,0.5c6.4,0.4,11.8,4.2,17.9,5.4c3.4,0.7,3.8,1.4,2,4.6
		c-1,0.6-2.2,0.6-3.2,0c-3.4-3.9-8.4-4.3-12.8-5.9c-0.6-0.1-1.3-0.2-2-0.2c-5.5-0.6-5.9-0.6-5.6,4.5c0.4,5.3-3,8.2-6.3,10.4
		c-3.3,2.2-7.3,0-10.7-1.8c-0.6-0.3-1.1-0.7-1.5-1.2c-0.7-0.7-1.5-1.4-2.3-0.5c-1,1,0.4,1.6,0.9,2.1c4.1,4.4,7.2,9.6,12,13.3
		c0.7,0.5,1.7,1.2,1.1,2.2c-0.6,1-1.7,0.5-2.5,0.2c-3.7-1.3-7.4-2.5-9.1-6.7c-0.8-1.9-2.2-3.6-3.1-5.4c-1.2-2.6-2.9-4.4-6.4-4
		c2.9,8.4,3.8,17.3,7,25.8c-3.7-2.7-7.6-5.1-7.8-10.5c-0.1-3-0.6-6-0.6-9c0.1-1.6-0.7-3.2-2.2-3.9c-1.8-1.1-3-3.2-4.5-4.9
		c-3.5,3.1-6.9,6.2-10.2,9.4c-0.7,0.7-1,2.1-1.2,3.2c-1,4.1-1.7,8.2-2.8,12.2c-1.2,4.8-6.1,8.2-12.6,8.1c6.6-3.4,6.4-9.5,8.8-14.4
		c1.4-2.8,2.4-5.8,3.7-8.7c0.5-1.2,1.3-2.4,0.1-3.6c0.3-1.3,1.1-2.4,2.4-2.9c2.7-1.2,3.3-3.2,2.8-6C246.2,16.8,245.6,12.3,245,7.8z"
        />
        <path class="st0" d="M454.2,313.7c-6.4,2.6-12.2,6.1-16.1,12c-2.8,4.1-2.6,4.7,1.9,6.3c2.5,0.9,6.7,9.3,6.2,13.1
		c-0.4,4.2-1.1,8.3-2.1,12.4c-0.7,2.7,0.4,5.5-1.3,8.9c-2.1-4.4-4.1-7.9-2.3-12.2c0.4-1,0.5-2.1,1-3c3.3-5,0.6-9.6-1-14.3
		c-0.2-0.5-0.2-1.1-0.9-1c-0.7,0-1.3,0.5-1.4,1.1c-0.3,1.7-0.8,3.4-0.5,5c0.6,2.6-0.1,4.4-2.2,5.7c-2,1.4-4.7,1.3-6.6-0.2
		c-0.4-0.2-0.8-0.4-1.3-0.5c-1.1,7.5-0.8,14.7,2.8,21.4c0.5,1,0.9,1.9,0.3,2.9c-0.5,0.8-1.5,1.1-2.4,0.8c-1-0.1-1.7-1-1.6-2
		c0.5-3.5-1-6.7-2-9.9c-1-3.4,1.2-7.2-1.9-10.3c-0.8-0.8,2.2-2.4,1.7-4.6c-1.6-0.2-2.6,1-3.5,1.9c-5.2,5.4-12.6,6.8-18.6,10.5
		c-0.8,0.5-1.9,0.4-2.5-0.4c-0.6-0.6-0.8-1.4-0.5-2.2c0.3-1.3,1.3-1.5,2.4-1.6c7.7-0.9,13.7-5.1,19.6-10.4c-1.2-0.5-2-0.8-2.8-1.2
		c-2-0.9-3.2-2.8-3.2-5c-0.1-2.1,0.6-3.9,2.8-4.7c0.2-0.1,0.6-0.1,0.7-0.3c1.2-1.6,4.4-2.4,3.7-4.4c-0.6-1.5-3.1,0.8-4.9,0.8
		c-5.4-0.1-6.7,4.5-9.2,7.8c-3.1,4-5.8,5.6-11.3,5.7c0.4-3.1,3.8-3.2,5.4-5.2c2.7-3.3,6-6.2,9.1-9.3c1.4-1.4,3.2-2.3,5.2-2.4
		c3.9-0.2,7.8-2.6,11.5,1.1c1.8,1.8,2.9-0.5,3.6-2c3.1-7,2.9-14.3,0.9-21.5L454.2,313.7z"/>
        <path class="st5" d="M87.3,127.1c16,11.2,31.8,22.6,48,33.5c5.1,3.4,3.4,10.2-0.5,12.4c-2.9,1.7-5.3,1.2-7.9-0.8
		c-14.5-11.1-29-22-43.5-33c-1-0.8-2.2-1.4-3.3-2.2c-1.8-2.2-3.8-3.5-6.8-2.2c-0.9,0.4-2.4,0.4-3-0.2c-1-0.9,0.6-1.7,0.8-2.7
		c3.1-3.9,6.4-7.6,8.4-12.3c2.2-1.8,3.8-1.6,3.6,1.6C82.9,124.6,84.9,125.9,87.3,127.1z"/>
        <path class="st2" d="M474.4,72.8h-92c-3.1-0.8-7.6,1.5-9.4-1.3c-1.6-2.5-0.7-6.5-0.7-9.9c0-1.7-0.7-3.6,0.6-5.2
		c0.1,1.3,0.1,2.6,0,3.9c-0.3,2.9,0.7,3.8,3.7,3.8c36.5-0.1,73-0.1,109.5-0.1c0.2,8.5,0.2,8.5-8.2,8.5
		C476.7,72.6,475.6,72.7,474.4,72.8z"/>
        <path class="st6" d="M486.1,64.1c-36.5,0-73,0-109.5,0.1c-3,0-4-1-3.7-3.8c0.1-1.3,0.1-2.6,0-3.9l11-0.3h3.1l93.8,0.1
		c5.6,0,5.6,0,5.5,5.5C486.2,62.6,486.1,63.3,486.1,64.1z"/>
        <path class="st7" d="M246.2,423.3c0.1,9-7.1,16.4-16,16.5c-0.1,0-0.2,0-0.4,0c-9.1,0.1-16.5-7.2-16.6-16.3c0,0,0,0,0,0
		c0.1-9.1,7.4-16.5,16.5-16.6C238.7,406.8,246.1,414.2,246.2,423.3z"/>
        <path class="st8" d="M87.3,127.1c-2.4-1.2-4.4-2.5-4.2-5.8c0.2-3.1-1.4-3.4-3.6-1.6c-0.1-0.7-0.3-1.3-0.4-2
		c-0.1-1.3,0.1-2.5,0.6-3.7c0.8-1.6-0.6-2.9-1.4-4.1c-1.1-1.6-1.8,1-2.9,0.5c-0.3-0.9-0.8-1.7-1.6-2.2c0.2-1.5,1.4-2.9-0.3-4.5
		c-1.4-1.3-2.5-0.7-3.7,0l-1.8-1.6c0.2-1.5,0.5-2.8-1.2-4c-1.8-1.3-2.8,0-4,0.7l-2.1-1c-0.6-1.2,0.8-3.1-1.7-3.6
		c-2.4-0.5-3.7,0.4-4.9,2.3h-3.9c0.1-1.2,1.1-3.1-1.7-2c-6.5,2.6-10.1,7.5-11.2,14.3c-0.2,1.1-1,2.6,0.4,3.1
		c1.1,0.4,1.3-1.3,2.1-1.9c0.4,1.5-0.1,3.1,0.9,4.5c-0.7,1.8-2.3,3.4-0.5,5.7c1.3,1.6,2.4,0.7,3.7,0.5l1.2,1.2c-0.2,4.8,1.2,6,5,4.4
		l2.1,1.1c0.3,1.2-1,2.5,1,3.6c2,1,3.3,0.5,4.7-0.7l3,1c-0.9,1.6-0.6,2.6,1.3,3c2.4,0.6,3.5-1.2,5.1-2.2l3.8,0
		c-0.2,1-1.8,1.8-0.8,2.7c0.6,0.5,2.1,0.5,3,0.2c3-1.3,5,0,6.8,2.2c-2.5,1.5-6.2,0.1-7.9,3.4c-0.1,0.2-0.9,0.2-1.1,0.1
		c-6.4-4.8-15.3-3.1-21.3-9.1c-1.3,2.7,0.1,4.1,0.8,5.8c1.7,4.4,3.8,8.7,2.9,13.6c-0.9,4.8-4,7.2-8.9,7c-4.7-0.2-7.6-3.1-8-8
		c-0.3-4.5,1.2-8.5,3.1-12.4c2.8-5.6,1.7-10.7-1.6-15.5c-4.8-6.9-5.6-14-1.3-21.3c5-8.7,14.2-12,23.7-8.4
		c9.2,3.4,15.9,9.9,21.3,17.8c0.7,1,1,2.8,3.1,2.1c0.5-0.2,1.6,0.5,1.4,1.1C84.2,117.9,88.5,122.3,87.3,127.1z M40.4,153.5
		c2.6,2.6,5.5,2.6,8.3,1c2.8-1.6,3.2-4.3,2.9-7.2c-0.1-1.2-0.4-2.3-0.8-3.4c-1.3-3.1-1.9-7.9-5.9-7.8c-3.8,0.1-4.1,4.8-5.3,7.9
		c-0.1,0.2-0.2,0.5-0.3,0.7c-0.3,1-0.1,1.9,1.1,1.9c2.2,0.1,4,0.8,4,3.3S42.4,152.9,40.4,153.5z"/>
        <path class="st4" d="M241.8,30.2c-3.1,3.9-5,8.6-7.5,12.9c-2.9,5-7.8,7.3-14.8,6c8.7-3.6,10.7-12.2,17.6-18l-9.9,0.5
		c-1.5-9.9-3-19.8-4.5-29.7c4.9-4.1,8,0.6,11.7,2.4c1.1,7.9,2.3,15.9,3.3,23.8C238.1,30.9,240.2,30,241.8,30.2z"/>
        <path class="st9" d="M300.5,410.3c0-7,5.1-12.1,11.3-12.1c6.2,0.1,11.2,5.2,11.2,11.4c-0.1,6.3-5.7,11.8-13.2,11.7
		c-1.5,0-4.2-2-5.8-3.8C302,415.6,300.7,413,300.5,410.3z"/>
        <path class="st4" d="M407.6,182c-0.2-6.8-0.2-6.8,6.4-6.8h32.6c5.1,0,5.1,0,5,5.1c0,0.5,0,1-0.1,1.6
		C436.8,182.4,422.2,182.2,407.6,182z"/>
        <path class="st10" d="M454.2,313.7l-21.4-11.1l-2.2-4.9c1.7-0.9,2.2-2.7,2.9-4.4l0.7-0.8l0.9-0.2l0.8,0.1l26,13.5l-0.1-0.1l-3.6,7
		L454.2,313.7z"/>
        <path class="st4"
              d="M461.9,305.8l-26-13.5l0.8-3c1.6-2,3.1-4.1,5.2-5.7l22.3,11.4C464.4,298.8,462,302.1,461.9,305.8z"/>
        <path class="st4" d="M217.1,31.1c-4.8,0.2-9.6-1.1-13.6-3.8c-3.2-2.2-6.8-0.5-10.2-0.6l-0.6-1.1c4.1-1.9,7.7-3.8,9.7-8.7
		c1.9-4.7,6.5-7.7,11.1-10.1C214.7,14.9,215.9,23,217.1,31.1z"/>
        <path class="st7" d="M217.1,31.1c-1.2-8.1-2.3-16.2-3.5-24.3c2.6-2.3,5.8-4,9.1-5c1.5,9.9,3,19.8,4.5,29.7
		C223.8,31.7,220.4,32.2,217.1,31.1z"/>
        <path class="st10" d="M464.1,295l-22.3-11.4c2.3-3,5.2-5.5,8.5-7.3l15.1,7.6C465.7,287.7,465.3,291.4,464.1,295z"/>
        <path class="st10" d="M241.8,30.2c-1.6-0.3-3.7,0.7-4.1-2.2c-1-8-2.2-15.9-3.3-23.8L245,7.8c0.6,4.5,1.2,9,2,13.5
		c0.5,2.8-0.1,4.8-2.8,6C242.9,27.9,242,29,241.8,30.2L241.8,30.2z"/>
        <path class="st0" d="M458.2,312.8l3.6-7c3.1-1.7,4.5-4.9,6.3-7.7c3.4-5.2,8-6.6,13.8-5.5c-0.1,0.3-0.1,0.7-0.2,0.8
		c-8.1,4.1-13.4,11.1-18.9,18C461.7,312.8,459.9,312.7,458.2,312.8z"/>
        <path class="st11" d="M465.4,283.9l-15.1-7.6c1.4-1.8,3.4-3,5.6-3.3c3.8-0.5,5.9-2.3,6.6-6c0.1-0.7,0.1-1.6,1.4-1.4
		c1.1,0.2,1.4,1,1,1.7c-2.8,5,0,9.8,0.6,14.6C465.6,282.6,465.5,283.3,465.4,283.9z"/>
        <path class="st4" d="M433.5,293.3c-0.7,1.6-1.1,3.4-2.9,4.4c-1.9-2.2,0.1-3.9,0.5-5.9c0.9-4.6,0.9-9.4,2.5-13.8
		c1.1-3.1,0.4-5.6,0.1-8.3c0.4-0.2,0.8-0.5,1.2-0.7c3.7,3.4,4.7,7.5,3,12.3c-1,2.7-1.9,5.4-2.9,8.1c0,1,0,2,0,3l-0.9,0.2
		C434,292.7,433.8,293,433.5,293.3z"/>
        <path class="st0" d="M425,290.4c-4.3-0.7-4.2-4-4.3-7.1c-0.1-4-0.2-8-3.6-11.8C425,274,427.1,279.5,425,290.4z"/>
        <path class="st12"
              d="M456.3,153.9c-1,1.2-2.4,0.7-3.7,0.7c-23.4,0-46.8,0-70.1,0c-0.1-0.2-0.1-0.5,0-0.7L456.3,153.9z"/>
        <path class="st12" d="M382.5,97.9c13.3,0,26.5,0,39.8,0c1.4,0,2.9-0.5,4.1,0.7l-43.9,0.1L382.5,97.9z"/>
        <path class="st12" d="M56.4,211.5c-0.5,1.1,0.9,3.2-1.6,3.3c-2.2,0.1-1.5-1.8-1.4-2.9c0.2-1.3-0.9-3.6,1.7-3.5
		C57.2,208.5,56,210.4,56.4,211.5z"/>
        <path class="st12" d="M354.5,34.8c-0.5,1.5-1,2.5-2,1.8c-1.5-1-3.9-0.8-4.3-3c-0.1-0.6,0.3-1.3,1-1.4c0.3-0.1,0.6,0,0.9,0.2
		C351.6,33.1,353.3,33.7,354.5,34.8z"/>
        <path class="st12" d="M470,230.5c-0.7,1.1,1,3.4-1.6,3.5c-1.9,0.1-1.4-1.6-1.2-2.6c0.3-1.3-1-3.5,1.3-3.8
		C470.6,227.2,469.8,229.2,470,230.5z"/>
        <path class="st12" d="M467.2,217.9c0.4-1.3-0.7-3.3,1.5-3.1c2.4,0.2,1.3,2.4,1.5,3.7c0.2,1.1,0.6,3-1.6,2.7
		C466.3,220.9,468,218.8,467.2,217.9z"/>
        <path class="st12" d="M56.2,224.4c-0.1,1.5,0.4,3.4-1.7,3.1c-2.1-0.2-1.2-2.3-1.3-3.5c-0.1-1.1-0.9-3,1.3-3
		C57.2,221.2,55.6,223.6,56.2,224.4z"/>
        <path class="st12" d="M175.5,408.1c-0.3,1.2-0.5,2.3-1.4,1.9c-1.9-0.6-4.1-0.9-5-3c-0.2-0.5,0.5-1.8,1.3-1.5
		C172.3,406,174,406.9,175.5,408.1z"/>
        <path class="st12" d="M65.3,159.9c-0.8,1.5-0.2,3.9-2.4,4.7c-0.6,0.2-1.3-0.2-1.5-0.8c-0.1-0.3-0.1-0.6,0.1-0.9
		c0.6-1.6,0.2-3.8,2.1-4.7c0.7-0.3,1.4,0.1,1.7,0.7C65.4,159.3,65.5,159.6,65.3,159.9z"/>
        <path class="st12" d="M330.8,25.1c-0.4,1.6-0.9,2.4-2,1.7c-1.5-0.8-3.9-0.3-4.4-2.4c-0.3-1,0.7-2,2.1-1.3
		C328,23.8,330,23.7,330.8,25.1z"/>
        <path class="st12" d="M342.9,29.7c-0.4,0.8-0.6,2.1-1.4,1.8c-1.9-0.6-4.2-0.6-5.2-2.7c-0.2-0.4,0.2-1.8,1.2-1.6
		C339.4,27.8,341.5,28.2,342.9,29.7z"/>
        <path class="st12" d="M469,243c-0.7,1,1,3.6-1.8,3.7c-1.6,0.1-1.6-1.4-1.1-2.3c0.6-1.4-0.8-3.8,1.7-4.1
		C469.6,240,469.1,241.6,469,243z"/>
        <path class="st12" d="M56.1,187.1c1-1-0.9-3.8,2-4c1.6-0.1,1.6,1.3,1.1,2.2c-0.8,1.3,0.9,4.1-2.3,4.1
		C55.6,189.3,55.7,188.4,56.1,187.1z"/>
        <path class="st12" d="M67.9,146c0.9,0.4,2.1,0.6,1.7,1.5c-0.8,1.7-0.5,4.2-2.7,5c-0.5,0.2-1.8-0.2-1.5-1.2
		C66,149.4,66.1,147.3,67.9,146z"/>
        <path class="st12" d="M469.7,206c0,1.3,0.3,2.6-1.3,2.4c-2.6-0.4-1.4-2.6-1.7-4c-0.2-1.1-0.3-2.7,1.5-2.4
		C470.6,202.5,469.1,204.9,469.7,206z"/>
        <path class="st12" d="M142.6,389c-0.4,0.8-0.7,2-1.5,1.7c-1.9-0.8-3.9-1.6-4.5-3.8c-0.2-0.5,0.7-1.7,1.5-1.3
		C139.9,386.4,141.4,387.5,142.6,389z"/>
        <path class="st12"
              d="M177,34c-1.7,0.4-2.2-0.8-2-1.4c0.6-2.1,3-2,4.6-2.9c1.2-0.6,1.8,0.8,1.7,1.4C180.6,33.4,178,32.8,177,34z"/>
        <path class="st12" d="M467.3,255.4c-0.6,0.9,0.8,3.6-1.9,3.8c-1.5,0.1-1.4-1.4-1.1-2.3c0.4-1.4-0.5-3.7,1.9-4
		C467.6,252.6,467.7,253.8,467.3,255.4z"/>
        <path class="st12" d="M118.3,73.9c-1.3,1.3-2.7,2.6-4.1,3.7c-0.6,0.4-1.8-0.7-1.7-1.2c0.6-2.1,2.3-3.4,4.1-4.4
		C117.2,71.8,118,72.6,118.3,73.9z"/>
        <path class="st12" d="M390.4,381.5c0.9,0.3,1.7,1,1.5,1.6c-0.7,1.9-2.6,2.9-4.3,3.7c-0.9,0.4-1.9-0.9-1.5-1.7
		C387,383.5,388.9,382.6,390.4,381.5z"/>
        <path class="st12" d="M93.5,102.7c-1,1.6-1.7,3.5-3.4,4.5c-0.6,0.4-2.1-0.4-1.6-1.5c0.7-1.7,1.6-3.7,3.5-4.5
		C92.5,101,93.2,101.7,93.5,102.7z"/>
        <path class="st12" d="M377.5,394.4c-1.2,0.1-1.8-0.7-1.7-1.3c0.4-2.1,2.6-2.7,4.1-3.6c1-0.6,2,0.6,1.7,1.4
		C381.1,392.8,378.8,393.2,377.5,394.4z"/>
        <path class="st12" d="M61.8,173.2c-1,0.9,0.5,3.5-2,3.7c-1.3,0.1-1.9-0.8-1.2-2c0.7-1.4-0.4-4,2.2-4.3
		C62.1,170.5,62,171.9,61.8,173.2z"/>
        <path class="st12" d="M185.5,415.1c-1.4-1-3.9-0.6-4.7-2.7c-0.3-0.7,0.4-2.1,1.6-1.6c1.7,0.8,4,0.5,4.7,2.8
		C187.2,414.3,186.7,415.2,185.5,415.1z"/>
        <path class="st12" d="M137.6,56.8c-1.2,1.7-2.8,3-4.7,3.8c-0.8,0.4-1.9-1.1-1.5-1.7c1.1-1.7,2.7-2.9,4.6-3.5
		C136.4,55.3,137.1,56.3,137.6,56.8z"/>
        <path class="st12" d="M143.5,53.1c-1.3-0.1-2-1-1.8-1.6c0.8-2,2.8-2.8,4.6-3.7c0.7-0.3,1.5,0.9,1.3,1.4
		C147,51.5,144.6,51.7,143.5,53.1z"/>
        <path class="st12" d="M343.8,412.8c-1.2-0.1-1.7-1-1.5-1.6c0.7-2.1,3-2.2,4.7-2.9c1.1-0.5,1.9,0.9,1.5,1.6
		C347.6,411.9,345.2,411.7,343.8,412.8z"/>
        <path class="st12" d="M192.8,25.5l0.6,1.1c-1.2,1.8-3.4,1.6-5,2.5c-0.7,0.4-1.1-0.1-1.4-0.8c-0.3-0.7-0.4-1.5,0.3-1.7
		C189,26.2,190.6,24.1,192.8,25.5z"/>
        <path class="st12" d="M397.7,379c-1.1-0.1-1.9-0.9-1.7-1.5c0.5-2,2.4-2.9,4-3.9c0.7-0.5,1.8,0.6,1.7,1.1
		C401.3,376.9,399,377.5,397.7,379z"/>
        <path class="st12" d="M130.8,383.1c-1.6-1.1-3.4-2.1-4.3-3.9c-0.3-0.6,0.7-1.8,1.3-1.6c2,0.6,3.6,2.1,4.5,3.9
		C132.6,382.2,131.7,382.8,130.8,383.1z"/>
        <path class="st12" d="M468.2,193.3c0.4,1.6,0.1,2.7-1.3,2.4c-2.3-0.5-1.1-2.8-1.7-4.2c-0.4-1-0.2-2.4,1.3-2.1
		C469.3,189.8,467.5,192.4,468.2,193.3z"/>
        <path class="st12" d="M101.2,92.8c-1.1,1.5-2.4,2.9-3.7,4.1c-0.5,0.4-2.1-0.7-1.7-1.6c0.8-1.7,1.8-3.5,3.7-4.3
		C100.1,90.8,100.9,91.5,101.2,92.8z"/>
        <path class="st12" d="M57.3,198.3c-0.7,1,1.1,3.5-1.8,3.7c-1.6,0.1-1.6-1.3-1.2-2.2c0.6-1.4-0.8-3.7,1.7-4.1
		C57.9,195.4,57.5,197,57.3,198.3z"/>
        <path class="st12" d="M153.2,396.1c-0.4,0.9-0.7,2-1.5,1.7c-1.9-0.7-3.9-1.5-4.7-3.5c-0.2-0.5,0.6-1.8,1.3-1.5
		C150.2,393.5,151.9,394.6,153.2,396.1z"/>
        <path class="st12" d="M376.7,47.7c-0.5,0.8-0.7,2-1.6,1.7c-1.8-0.8-3.9-1.3-4.6-3.6c-0.2-0.6,0.7-1.5,1.1-1.3
		C373.5,45.1,375.3,46.2,376.7,47.7z"/>
        <path class="st12" d="M360.5,404.2c-1.5,1.4-3.2,2.4-5.2,3c-1,0.4-1.6-0.7-1.4-1.3c0.7-2.3,3-2.5,4.8-3.1
		C359.6,402.4,359.6,403.7,360.5,404.2z"/>
        <path class="st12" d="M126,63.3c0.9,0.3,1.8,1.1,1.5,1.7c-0.9,1.8-2.6,3.2-4.6,3.8c-0.5,0.1-1.6-1-1.1-1.7
		C122.9,65.5,124.3,64.2,126,63.3z"/>
        <path class="st12" d="M284.9,425.4c1.4-0.3,2.4-0.2,2.2,1.1c-0.4,2.6-2.8,1.4-4.3,1.9c-1.1,0.4-2.3,0-2-1.4
		C281.4,424.3,283.9,426.2,284.9,425.4z"/>
        <path class="st12" d="M306.1,18.3c-0.1,1.2-0.3,2-1.3,1.9c-1.8-0.3-3.9,0.1-5.1-1.8c-0.3-0.6-0.1-1.3,0.4-1.6
		c0.3-0.2,0.6-0.2,0.9-0.1C302.9,17,304.9,16.7,306.1,18.3z"/>
        <path class="st12" d="M158.7,42.9c-1.2,1.4-3,2.1-4.7,3c-0.9,0.4-1.7-0.6-1.6-1.2c0.5-2.4,2.8-2.7,4.6-3.5
		C157.9,40.9,158.2,42,158.7,42.9z"/>
        <path class="st12" d="M360.8,37.9c1.7,1,3.7,1.5,4.8,3.1c0.3,0.4-0.5,2.1-1.5,1.7c-1.7-0.7-3.8-1.1-4.6-3.1
		C359.2,38.8,360,38.2,360.8,37.9z"/>
        <path class="st12" d="M105.1,354.4c0,1.2-0.7,1.9-1.4,1.7c-2.1-0.4-3-2.4-3.9-4c-0.6-1,0.8-2,1.4-1.7
		C103.2,351.1,103.9,353.1,105.1,354.4z"/>
        <path class="st12" d="M417.7,355.2c1.2,0.2,2.1,0.8,1.8,1.5c-0.7,1.8-2,3.4-3.7,4.3c-0.6,0.3-1.8-0.7-1.7-1.2
		C414.7,357.8,416.4,356.6,417.7,355.2z"/>
        <path class="st12" d="M169.8,36.8c-1.1,1.6-3,2-4.7,2.8c-0.6,0.2-1.3-0.1-1.5-0.7c-0.1-0.2-0.1-0.3-0.1-0.5c0.5-2.5,3-2.5,4.7-3.4
		C169.1,34.7,169.4,35.8,169.8,36.8z"/>
        <path class="st12"
              d="M386.9,56.2h-3.1c-0.3-1.7-4.3-1.7-2.4-3.8c2-2.4,3.2,1.2,4.9,1.8C387.2,54.5,387.1,55.4,386.9,56.2z"/>
        <path class="st12" d="M366.5,401.2c-1-0.1-1.7-0.9-1.5-1.6c0.7-2,2.8-2.5,4.5-3.2c1-0.4,1.9,1,1.5,1.6
		C370.1,399.8,368,400.2,366.5,401.2z"/>
        <path class="st12" d="M109.3,83c-1.1,1.5-2,3.3-3.9,4c-0.6,0.2-2.1-0.7-1.5-1.6c1-1.6,2-3.5,3.9-4C108.6,81.2,109.3,81.9,109.3,83z
		"/>
        <path class="st12" d="M159.4,399.3c1.5,1.4,3.9,1.4,4.6,3.4c0.2,0.7-0.6,2-1.7,1.4c-1.6-0.9-3.9-1-4.4-3.3
		C157.8,400.1,158.7,399.6,159.4,399.3z"/>
        <path class="st12" d="M312.5,19.6c1,0.6,2.2,0.5,3.2,0c0.9,1,4.2,0.7,2.3,3.2c-1.1,1.4-2.9-0.3-4.4-0.5C312,22,312,20.9,312.5,19.6
		z"/>
        <path class="st12" d="M122.8,373.1c-0.3,0.8-0.8,1.8-1.6,1.4c-1.8-0.8-3.2-2.2-4.1-3.9c-0.3-0.7,0.9-2,1.7-1.5
		C120.5,370,121.9,371.4,122.8,373.1z"/>
        <path class="st12" d="M109.6,360c1.7,1.1,3.3,2.4,4,4.4c0.2,0.6-0.9,1.6-1.5,1.3c-1.7-0.8-3.1-2.3-3.9-4
		C107.8,360.8,108.8,360.4,109.6,360z"/>
        <path class="st12" d="M411,366.3c-1.3,1.4-2.3,3.3-4.4,3.9c-0.6,0.1-1.6-1-1.3-1.6c1-1.6,2.2-3.2,4.1-3.9
		C410.2,364.5,410.8,365.3,411,366.3z"/>
        <path class="st12" d="M268.4,426.1c2.4,0.9,4.6-1,6.1,1.2c0.3,0.6,0.1,1.3-0.5,1.6c-0.1,0.1-0.3,0.1-0.4,0.1
		C271.3,429.7,269.8,428.8,268.4,426.1z"/>
        <path class="st0" d="M435.1,292.3c0-1,0-2,0-3l1.6,0.1l-0.8,3L435.1,292.3z"/>
        <path class="st0"
              d="M434.9,268.9c-0.4,0.3-0.8,0.5-1.2,0.7c-0.2-0.5-0.6-1.1,0.1-1.5C434.4,267.9,434.8,268.4,434.9,268.9z"/>
        <path class="st4" d="M429.4,149.2c-3.7,0-7.3-0.1-11,0c-2.3,0.1-2.9-1-2.9-3.1c0-2.2,0.5-3.4,3.1-3.3c7.2,0.1,14.4,0.1,21.6,0
		c2.4,0,2.8,1,2.8,3.1c0,2.1-0.3,3.5-2.9,3.3C436.5,149,433,149.2,429.4,149.2z"/>
        <path class="st12" d="M472.9,153.9c-4.4,1.2-9.1,1.2-13.5,0H472.9z"/>
        <path class="st11" d="M429.2,116.8c-3.4,0-6.8-0.1-10.2,0c-2.5,0.1-3.6-0.7-3.6-3.4c0-2.4,0.6-3.7,3.3-3.6c7.1,0.1,14.2,0.1,21.2,0
		c2.9,0,3,1.7,3.1,3.9c0.1,2.4-0.9,3.2-3.2,3.1C436.3,116.7,432.7,116.8,429.2,116.8z"/>
        <path class="st12" d="M430.4,98.7c0.8-0.9,1.9-0.7,2.9-0.7H470c1,0,2.1-0.2,2.9,0.7L430.4,98.7z"/>
        <path class="st8" d="M60.2,342c-9.1,0-18.1,0-27.1,0c-6.2,0-8.7-2.4-8.7-8.5c-0.1-17.7-0.2-35.4,0.1-53.1
		c0.1-7.9,4.9-13.9,10.2-19.4c1-1.1,2.4-0.9,3.7-0.9c14.6,0,29.1,0,43.7,0c2.1,0,3.8,0.5,5.2,2.2c5,6.2,9.1,12.5,8.8,21.2
		c-0.5,16.3-0.1,32.5-0.1,48.8c0,8-1.8,9.8-10,9.8L60.2,342z"/>
        <path class="st4"
              d="M429.3,81.5c3,0,5.4,2.4,5.4,5.4c0,3-2.4,5.4-5.4,5.4c-3,0-5.4-2.4-5.4-5.4C423.9,84,426.3,81.5,429.3,81.5z"
        />
        <path class="st11" d="M79.1,117.7c0.1,0.7,0.2,1.4,0.4,2c-1.9,4.7-5.3,8.4-8.4,12.3l-3.8,0c2.4-5.2,6.3-9.3,9.6-13.8
		C77.3,117.7,78.4,117.8,79.1,117.7z"/>
        <path class="st6" d="M50.1,126.2c-3.9,1.6-5.2,0.4-5-4.4c0.5-0.2,1.2-0.2,1.4-0.5c5.7-7.3,11.5-14.6,16.2-22.6c1.3-0.7,2.2-2,4-0.7
		c1.7,1.2,1.4,2.5,1.2,4c-3.6,1.8-4.9,5.6-7.1,8.5C57.1,115.6,52.8,120.3,50.1,126.2z"/>
        <path class="st6" d="M69.7,103.6c1.2-0.6,2.3-1.3,3.7,0c1.7,1.6,0.6,3,0.3,4.5c-5.8,7-11.4,14.1-15.8,22c-1.4,1.2-2.7,1.8-4.7,0.7
		s-0.7-2.4-1-3.6c3.6-1.6,4.8-5.3,6.9-8.1C62.8,114.1,67.2,109.4,69.7,103.6z"/>
        <path class="st2" d="M40.4,153.5c2-0.5,4.1-1,4.1-3.4c0-2.5-1.8-3.2-4-3.3c-1.2,0-1.4-0.9-1.1-1.9c0.1-0.3,0.2-0.5,0.3-0.7
		c1.1-3.1,1.4-7.8,5.3-7.9c4-0.1,4.6,4.6,5.9,7.8c0.4,1.1,0.7,2.2,0.8,3.4c0.3,2.9-0.1,5.6-2.9,7.2C45.9,156,43,156.1,40.4,153.5z"
        />
        <path class="st6" d="M43.8,120.6c-1.3,0.2-2.4,1.1-3.7-0.5c-1.8-2.3-0.2-3.9,0.5-5.7c5.1-5.5,9-11.9,13.4-18
		c1.1-1.9,2.5-2.7,4.9-2.3c2.5,0.5,1.2,2.4,1.7,3.6c-1.4,0.2-2.2,1.2-3,2.3c-3.1,4.4-6.6,8.7-9.7,13.2
		C46.3,115.5,43.9,117.5,43.8,120.6z"/>
        <path class="st6" d="M79.1,117.7c-0.7,0.1-1.8,0-2.2,0.5c-3.3,4.5-7.3,8.6-9.6,13.8c-1.6,1-2.7,2.8-5.1,2.2c-2-0.5-2.2-1.4-1.3-3
		c3.3-4.4,6.5-8.8,9.8-13.1c1.8-2.4,3.9-4.6,4.6-7.6c1.1,0.5,1.8-2,2.9-0.5c0.8,1.2,2.2,2.5,1.4,4.1C79.2,115.1,79,116.4,79.1,117.7
		z"/>
        <path class="st11" d="M69.7,103.6c-2.5,5.9-6.9,10.5-10.6,15.6c-2.1,2.9-3.3,6.5-6.9,8.1l-2.1-1.1c2.6-5.9,7-10.6,10.7-15.7
		c2.2-3,3.4-6.7,7.1-8.5L69.7,103.6z"/>
        <path class="st11" d="M43.8,120.6c0.1-3.1,2.5-5.1,4.1-7.4c3.1-4.5,6.5-8.8,9.7-13.2c0.8-1.1,1.5-2.1,3-2.3l2.1,1
		c-4.7,8-10.5,15.3-16.2,22.6c-0.3,0.3-1,0.3-1.4,0.5L43.8,120.6z"/>
        <path class="st11" d="M75.4,110.4c-0.7,3.1-2.8,5.3-4.6,7.6c-3.3,4.4-6.5,8.8-9.8,13.1l-3-1c4.4-8,10-15.1,15.8-22
		C74.6,108.7,75.2,109.5,75.4,110.4z"/>
        <path class="st5" d="M39.7,109.8c-0.8,0.6-1,2.4-2.1,1.9c-1.4-0.5-0.6-2-0.4-3.1c1.1-6.8,4.7-11.6,11.2-14.3c2.8-1.1,1.8,0.7,1.7,2
		h0l-0.8,0.7C45.5,100.9,43,105.7,39.7,109.8z"/>
        <path class="st11" d="M39.7,109.8c3.4-4.1,5.9-8.9,9.6-12.7l0.8-0.7h0H54c-4.4,6-8.3,12.5-13.4,18C39.6,113,40.1,111.3,39.7,109.8z
		"/>
        <path class="st0" d="M433.5,293.3c0.2-0.3,0.4-0.6,0.7-0.8L433.5,293.3z"/>
        <path class="st8" d="M50.1,96.4l-0.8,0.7L50.1,96.4z"/>
</g>
    <g>
	<path class="st13" d="M868.6,58.6c15.1,4,26.4,12.7,33.4,26.8c1.9,3.8,5.3,4.7,9.3,4.2c3.9-0.6,5.6,1,5.5,5c-0.1,3.4-0.6,6.2-5,5.6
		c-5.1-0.7-5.6,2.4-5.7,6.3c-0.2,14.4,1.3,28.9-0.8,43.3c-0.5,3.4,2,3.2,3.9,3.9c15.3,5.8,26.8,15.3,31.3,31.8c1.4,5.2,2,10.6,2,16
		c-0.1,16.6,0.3,33.2-0.2,49.8c-0.4,15.5-9,25.8-24.2,29.4c-5.7,1.3-7,4.1-7,9.4c0.3,27.2,0.1,54.3,0.4,81.5c0.1,4.7-1.1,8-5.5,9.8
		c-3,0-6,0-9.1,0c-1.2-2.4-3.4-1.2-5.1-1.2c-8.7-0.1-17.4-0.2-26.1,0c-2.1,0-4.7-1.3-6.4,1.2c-1.3,0-2.6,0-3.9,0
		c-4.3-2.9-9.1-1.3-13.6-1.1c-7.6,0.2-15.3-1.8-22.7,1.1c-3,0-6,0-9.1,0c-2.4-2.4-2.9-5.3-2.9-8.7c0.2-27.6,0.1-55.2,0.4-82.8
		c0.1-5.5-1.8-8.1-7.3-9.3c-15.2-3.4-23.8-14.5-23.9-30.2c-0.1-16.6-0.1-33.2,0-49.8c0.1-23,10-37.4,31.5-46c3.1-1.2,5-2.8,5-6.5
		c-0.2-14-0.2-28-0.2-42c0-3.9-1-6.4-5.6-5.7c-4.2,0.6-5.1-1.9-5.1-5.5c0-3.8,1.4-5.8,5.4-5.1c4,0.6,7.5-0.5,9.4-4.2
		c7.1-14.1,18.3-22.8,33.4-26.8C856.5,58.6,862.5,58.6,868.6,58.6z M901.1,269c-0.1,0-0.1,0-0.2,0c0-24.6,0-49.2,0-73.8
		c0-3.8,0.4-7,5.3-7.1c5.1,0,5.1,3.5,5.1,7.1c0,11,0,22,0,33c0,11.8,1.9,12.9,13.8,12.2c6.4-0.4,7.4-3,7.2-8.4
		c-0.3-11.2-0.1-22.4-0.3-33.7c-0.2-17.7-10.9-31.1-28.1-35.6c-3.5-0.9-6.3-0.6-8.8,2.1c-6.2,6.6-14.1,10.2-22.7,11.2
		c-6.8,0.8-8,3.9-7.9,9.8c0.3,19,0.2,38,0.3,57c0,3.7,0.5,7.7-5.3,7.5c-5.6-0.2-5.1-4-5.1-7.7c0.1-19.4,0.1-38.8,0.3-58.3
		c0.1-4.9-1.4-7.4-6.8-8c-8.9-1.1-17.1-4.5-23.5-11.1c-2.3-2.4-4.8-3.4-8.1-2.7c-16.4,3.2-29,18.1-29.2,34.9
		c-0.1,10.1-0.1,20.3-0.1,30.4c0,11.7,0.8,12.3,12.5,12.3c8.3,0,8.5-0.4,8.5-8.9c-0.1-12.5-0.1-25-0.2-37.6c0-2.3,0.2-4.5,2.8-5.3
		c2.1-0.6,4.3-0.8,6.1,0.9c2,1.9,1.5,4.4,1.5,6.7c0,31.5,0,63,0,94.5c0,17.3,0,34.5-0.2,51.8c-0.1,5.1,1.9,6.9,6.9,6.6
		c6.9-0.4,13.8-0.1,20.7-0.2c6.8-0.1,8.3-2.1,9-8.9c1.3-14-0.8-27.9-0.1-41.9c0.2-4.4,1.5-6.5,5.9-6.2c4.2,0.3,4.4,3.4,4.4,6.6
		c-0.1,14.7,0,29.3-0.3,44c-0.1,5.2,1.8,6.9,6.8,6.6c7.1-0.3,14.2-0.2,21.4-0.1c8.2,0.1,8.5-0.1,8.5-8.1
		C901.2,316.9,901.1,293,901.1,269z M859.5,131.1c10.1,0,20.3-0.1,30.4,0.1c4.5,0.1,6.2-1.4,5.9-6c-0.4-6.4-0.3-12.9-0.1-19.4
		c0.1-4.3-1.8-5.8-5.8-5.7c-6.7,0.2-13.4,0.2-20,0.2c-13.6,0-27.2-0.1-40.7-0.2c-3,0-6.1,0.1-5.6,4.2c0.8,6.7-0.1,13.3-0.4,20
		c-0.2,5.5,2.1,7.1,7.3,6.9C840.1,130.9,849.8,131.1,859.5,131.1z M859.8,141.5c0-0.1,0-0.2,0-0.3c-10.4,0-20.7,0-31.1,0
		c-5.2,0-7.2,2.6-5,7.4c1.8,3.9,4.5,7.3,7.8,10.2c11,9.5,24.1,9.9,37.3,8.2c11.2-1.4,20.5-6.4,25.6-17.3c3-6.4,2-8.2-4.9-8.2
		C879.7,141.5,869.8,141.5,859.8,141.5z M826.8,89c22.2,0,43.5,0,65.4,0c-7.8-12.7-17.7-20.1-32.4-20.1
		C844.9,68.8,834.7,75.9,826.8,89z M836.7,359.2C836.7,359.2,836.7,359.2,836.7,359.2c-4.5,0-9,0.1-13.5,0c-3.4-0.1-5.2,1.2-5.2,4.8
		c0,3.7,1.4,5.6,5.3,5.5c8.8-0.1,17.6-0.2,26.4,0c3.9,0.1,4.7-1.9,4.7-5.2c0-3.4-1-5.3-4.8-5.2C845.3,359.3,841,359.2,836.7,359.2z
		 M883.1,359.2C883.1,359.3,883.1,359.3,883.1,359.2c-4.3,0-8.6,0.2-12.9,0c-3.9-0.2-5.6,1.2-5.5,5.2c0.1,4,2.1,5.2,5.7,5.2
		c8.6-0.1,17.2-0.2,25.9,0c3.3,0,4.7-1.2,4.6-4.5c-0.1-3.3-0.3-6.1-4.8-5.8C891.8,359.4,887.4,359.2,883.1,359.2z M807.5,262.6
		c-0.2-11.8-0.2-11.8-11.6-12c-1.1,0-2.1-0.1-3.2-0.2c-5.5-0.5-6.3,2.3-4.7,6.8c1.6,4.7,5,8,9,10.6c2.6,1.7,5.5,4.3,8.8,2.7
		C809.5,268.7,806.9,265,807.5,262.6z M911.5,260.5c0,2.4,0.1,3.5,0,4.5c-1,6.1,1.9,6.5,6.6,4.7c6.5-2.5,10.6-7.1,13.1-13.4
		c0.8-2,1.4-4-1.2-4.8c-5.2-1.6-10.8-2-15.8-0.1C909.7,253.2,912,258.1,911.5,260.5z"/>
        <path class="st14" d="M859.5,381.2c1.7-2.5,4.3-1.2,6.4-1.2c8.7-0.2,17.4-0.2,26.1,0c1.7,0,3.9-1.2,5.1,1.2
		C884.6,381.2,872,381.2,859.5,381.2z"/>
        <path class="st14"
              d="M819.3,381.2c7.4-3,15.2-0.9,22.7-1.1c4.5-0.1,9.3-1.7,13.6,1.1C843.5,381.2,831.4,381.2,819.3,381.2z"/>
        <path class="st15" d="M901.1,269c0,24,0,47.9,0,71.9c0,8-0.3,8.2-8.5,8.1c-7.1-0.1-14.3-0.2-21.4,0.1c-5,0.2-6.9-1.4-6.8-6.6
		c0.3-14.7,0.2-29.3,0.3-44c0-3.2-0.2-6.2-4.4-6.6c-4.5-0.4-5.7,1.7-5.9,6.2c-0.8,14,1.4,27.9,0.1,41.9c-0.6,6.8-2.2,8.8-9,8.9
		c-6.9,0.1-13.8-0.1-20.7,0.2c-5,0.3-7-1.5-6.9-6.6c0.2-17.3,0.2-34.5,0.2-51.8c0-31.5,0-63,0-94.5c0-2.3,0.5-4.8-1.5-6.7
		c-1.8-1.7-4-1.5-6.1-0.9c-2.5,0.8-2.8,3-2.8,5.3c0.1,12.5,0,25,0.2,37.6c0.1,8.5-0.2,8.9-8.5,8.9c-11.8,0-12.5-0.7-12.5-12.3
		c0-10.1,0-20.3,0.1-30.4c0.2-16.8,12.7-31.7,29.2-34.9c3.3-0.6,5.9,0.4,8.1,2.7c6.4,6.6,14.6,10,23.5,11.1c5.4,0.7,6.8,3.1,6.8,8
		c-0.2,19.4-0.2,38.8-0.3,58.3c0,3.8-0.5,7.6,5.1,7.7c5.8,0.2,5.3-3.8,5.3-7.5c0-19,0-38-0.3-57c-0.1-5.9,1.2-9,7.9-9.8
		c8.6-1,16.6-4.6,22.7-11.2c2.5-2.7,5.4-3,8.8-2.1c17.2,4.4,27.9,17.8,28.1,35.6c0.1,11.2,0,22.4,0.3,33.7c0.2,5.4-0.8,8-7.2,8.4
		c-11.8,0.7-13.7-0.4-13.8-12.2c0-11,0-22,0-33c0-3.7,0-7.2-5.1-7.1c-4.9,0-5.3,3.3-5.3,7.1c0,24.6,0,49.2,0,73.8
		C901,269,901.1,269,901.1,269z"/>
        <path class="st15" d="M859.8,141.5c9.9,0,19.8,0,29.8,0c6.9,0,7.9,1.8,4.9,8.2c-5.1,10.9-14.5,15.8-25.6,17.3
		c-13.2,1.7-26.3,1.3-37.3-8.2c-3.3-2.9-6.1-6.2-7.8-10.2c-2.1-4.8-0.1-7.4,5-7.4c10.4,0,20.7,0,31.1,0
		C859.8,141.3,859.8,141.4,859.8,141.5z"/>
        <path class="st15"
              d="M826.8,89c7.9-13.1,18.1-20.2,33-20.1c14.7,0.1,24.6,7.4,32.4,20.1C870.3,89,849,89,826.8,89z"/>
</g>
</svg>
