<svg xmlns="http://www.w3.org/2000/svg" viewBox="0 0 639.05 883.24">
    <defs>
        <style>
            .cls-1{fill:#96d7f3;}.cls-2{fill:#533010;}.cls-3{fill:#5e350d;}.cls-4{fill:#f9d61e;}.cls-5{fill:#784414;}.cls-6{fill:#906e2d;}.cls-7{fill:#eb9e21;}.cls-8{fill:#25221e;}.cls-9{fill:#f5d520;}.cls-10{fill:#784415;}.cls-11{fill:#f2b61b;}.cls-12{fill:#784515;}.cls-13{fill:#854c21;}.cls-14{fill:#fcdd89;}.cls-15{fill:#844c21;}.cls-16{fill:#a18145;}.cls-17{fill:#f8dc89;}.cls-18{fill:#29251f;}.cls-19{fill:#27241f;}.cls-20{fill:#faf1a2;}.cls-21{fill:#edbd2d;}.cls-22{fill:#eebd2c;}
        </style>
    </defs>
    <title>honey</title>
    <g id="Livello_2" data-name="Livello 2">
        <g id="Livello_1-2" data-name="Livello 1">
            <path class="cls-1"
                  d="M219.49,45.15c-17.05-18.69-4.8-37.77,9.15-42.45C239.33-.89,248.15,2,255.73,10c5.12,5.37,5.32,5.38,9.26-.64,3.44-5.24,8.95-7.06,14.24-9.35h11c5,2,9.92,4.11,13.44,8.62,9.58,12.27,7.84,26.93-4.52,36.59-4.13,1.89-6.4-2.34-9.76-3-8.71-4-17.77-6.51-27.47-6.24-11-1.54-21.5.72-31.74,4.57C226.29,41.32,224,45.84,219.49,45.15Z"/>
            <path class="cls-2"
                  d="M596.75,690.51C590.92,705.37,582,718.39,572.49,731c-21.06,28.14-47.46,50.4-77.9,67.58-6.39,3.61-7.83,6.67-7.56,13.27.39,9.64-4.58,17.5-11.13,24.28-13.5,14-30.28,22.5-48.34,28.91C385.05,880.15,341,884.33,296.3,883c-35.07-1-69.6-5.82-102.77-18-13.94-5.1-27.27-11.5-39.17-20.5-9.2-7-16.62-15.39-19.44-27a20.07,20.07,0,0,1-.73-7.89c.93-5.29-1.79-7.61-5.91-10-42.22-24.11-76.52-56.25-99.86-99.35-1.74-3.2-3.14-6.59-4.7-9.89C26,688,28,690.05,29.9,691c8.67,4.39,17.45,8.51,26.45,12.18a9.19,9.19,0,0,1,3,2.48c16.2,24,36.39,44.14,59.85,61.05,43.87,31.61,93.26,48.64,146.44,56.18a333.5,333.5,0,0,0,62.8,2.6,327,327,0,0,0,81-14c19.65-6,38.85-13.08,57.06-22.62,33.81-17.71,62.77-41.35,86.31-71.5,3.08-3.94,6-8,9.41-11.66a19.32,19.32,0,0,1,2.95-2.47c9.17-4.1,18.44-8,27.27-12.84C593.8,689.64,595.35,688.56,596.75,690.51Z"/>
            <path class="cls-3"
                  d="M21.16,506.94a20.62,20.62,0,0,1,1.23-8.33C33.84,461,48.22,424.72,72.26,393a198.18,198.18,0,0,1,44.07-43c2-1.63,3.76-.43,5.5.5,24.84,13.34,51.41,21.58,79,26.86,6,1.15,12.08,2.26,18.18,3.08,2.7,1.41,3.65,4.24,5.07,6.59,6.91,11.37,17.64,16.32,30.23,17.44,6.72.6,12.85-1.57,16-8.49a9.94,9.94,0,0,0,.67-3.4c.49-4,2.87-6,6.72-5.86a80.85,80.85,0,0,1,12.78,1.31c6,7.2,7,20.67,1.62,29.95-3.4,5.86-7.87,11.07-11.37,16.9a4.23,4.23,0,0,1-2.32,1.79c-50.89-2.43-100.78-9.69-147.67-31.11-10.33-4.72-20.11-10.44-28.55-18.19-.74-.67-1.5-1.33-2.29-1.93-4.44-3.41-5.53-3.31-8.89,1.09C77,405,66.17,425.21,57.29,446.51A427.12,427.12,0,0,0,37,509.24a9.9,9.9,0,0,1-1.4,3.71C29.32,514.55,25.57,510,21.16,506.94Z"/>
            <path class="cls-4"
                  d="M531.44,322.82c-2.18,10.27-.1,20,3.9,29.43,4.37,10.37,4,20.94,1.09,31.58.2,3.26-2.15,5-4.09,7a48.6,48.6,0,0,0-4.5,3.87c-9.06,8.55-19.88,10.31-31.49,5.17-12.22-7.45-14.89-18.85-13.14-32,.27-2,.66-3.94,1.07-5.9,1.71-7,3.9-13.89,3.56-21.24a24.55,24.55,0,0,0-1.42-7.2c-2.18-8.26-7.77-12.81-15.91-14.6a33.79,33.79,0,0,1-8.08-2.39c-6.18-3.06-7.67-5.59-7.2-12.6.86-3.45,3.21-5.76,6.1-7.52,5.84-3.56,9.24-8.33,8.68-15.52a16.49,16.49,0,0,1,1.76-8.19,19.69,19.69,0,0,1,17.83-5.39c25.72,4.36,41.28,21.51,42.92,47.63A23.81,23.81,0,0,1,531.44,322.82Z"/>
            <path class="cls-5"
                  d="M219.22,381c-4,1.32-7.74-.44-11.55-1.06a294.64,294.64,0,0,1-82.45-25.9c-2.92-1.42-5.19-4.34-8.89-4,.08-2.15-1.76-2.55-3.09-3.46-8-5.43-15.55-11.33-21.13-19.42-9.44-13.7-9.23-27.65.65-41,10.54-14.26,25.41-22.53,41-29.71,5.34-2.46,10.62-5.1,16.35-6.62,3.08,1.19,5.13-.53,7.09-2.51a9.72,9.72,0,0,1,4.92-1.47c2.17,1,3.43-.91,5.05-1.64,21-5.78,42.1-11,63.83-13.25,2-.91,4.36,1.13,6.18-.86,6.71-.16,13.17-2.66,20-2.09,2.89-1.71,6.21,1.33,9.05-.83a190.39,190.39,0,0,1,27.53-1.23,283.12,283.12,0,0,1,34.59,0c13-.5,25.92,1.73,38.91,2.16,2.19,2.09,4.91-.46,7.19.81l9.8,1.12a22,22,0,0,0,3.47,1.88c1.62.59,2.56,1.59,2.1,3.34-.5,1.92-2,2.53-3.82,2.26-2.39-.35-4.73-1.74-7.16-.2a3.59,3.59,0,0,1-1.42.14c-2.6-1.69-5.24-3.07-8.26-.9a3.08,3.08,0,0,1-2-.19c-3.36-3.22-6.88-3-10.52-.49a7.84,7.84,0,0,1-5.17-.26c-4.86-3.58-9.87-3.83-15-.62-3.38.56-6.74.8-10.05-.33-2.93-2.66-6.73-2.63-10.26-3a94.15,94.15,0,0,0-22.74.81c-1.58.22-2.65,1.25-3.89,2a11.91,11.91,0,0,1-7.25.47c-4.26-2.72-8.38-2.74-12.31.69a7.46,7.46,0,0,1-5.06.09c-3.57-3.27-6.79-2.27-9.86.8a4.46,4.46,0,0,1-2.93,0c-3.84-2.69-7.87-.21-11.56.13-11.87,1.1-23.64,3.21-35.4,5.28a244.91,244.91,0,0,0-46.54,13.18c-15.64,6.1-30.29,13.66-42.56,25.92-11.46,11.46-8.29,30.53-.06,39.38,7.92,8.51,17.68,14.1,27.89,19a219.1,219.1,0,0,0,50.1,16.66c7.15,1.48,14,4.12,21.4,4.77a4.32,4.32,0,0,1,3.85,2.78C219.56,369.48,220.82,375.24,219.22,381Z"/>
            <path class="cls-6"
                  d="M392.16,230.74c7.79-26.34,12.93-53.3,19-80.05,6.3-27.72,12.58-55.46,18-83.37C432.39,51,443,40.62,457.29,38.92,481.68,36,500.16,58.39,492.44,81.7c-10.29,31.07-21,62-30.68,93.3-6.11,19.85-12.34,39.67-18.54,59.49a14.89,14.89,0,0,0-.93,6.36c-.7,5.08-3,9.76-3.72,14.83-4.73,15.79-9.41,31.59-14.21,47.36-1.09,3.58-1.85,7-1,10.71-3.58,2.78-8.2,2.12-12.2,3.7a100.41,100.41,0,0,1-20,6c-6.77,1.14-13.55,1.05-20.35,1-1.8,0-3.71,0-4.89-1.8,10.19-24.14,14.36-50,20.87-75.12.33-1.28.54-2.6.93-3.86C388.92,239.22,389.53,234.63,392.16,230.74Z"/>
            <path class="cls-7"
                  d="M596.75,690.51c-1.89-.83-3.09.68-4.51,1.37-8.9,4.27-17.48,9.26-27,12.17-1.93-2.73.13-4.78,1.34-6.79A202.46,202.46,0,0,0,592.38,629a231.23,231.23,0,0,0-1.17-90.26c-1.12-5.38-2.16-10.77-3-16.2a10.42,10.42,0,0,0-3.71-6.84c-1.14-1.72.32-2.4,1.31-3.27,3.28-1.52,6.58-3,9.77-4.76,1.66-.9,3.54-2,5.58-.69,5.14,11.85,6.88,24.6,9.49,37.08,7.69,36.73,8.9,73.52-.4,110.21A163.93,163.93,0,0,1,596.75,690.51Z"/>
            <path class="cls-7"
                  d="M21.16,506.94c5.1,1.05,8.77,5.46,14.07,6,1.49.31,2.76.77,1.9,2.72a12.72,12.72,0,0,0-2.61,4.77c-3.15,14.43-6.4,28.76-7.81,43.6-.8,8.36-2.15,16.7-2.07,25.15.31,32.39,6.7,63.36,21.4,92.44,3,5.94,5.88,11.92,9.12,17.74.79,1.43,1.83,2.84,1.07,4.65-9.23-2.65-17.48-7.53-26.14-11.48-2-.92-3.78-2.78-6.36-2.07C12.47,667.13,6.5,642.37,4.6,616.64c-1.62-21.88.66-43.54,5.11-65,2.4-11.55,4.95-23.07,7.54-34.58A29.66,29.66,0,0,1,21.16,506.94Z"/>
            <path class="cls-1"
                  d="M21.39,235.82c.29-3.71-.81-5.92-5-6.79C8,227.29-.92,215.51.08,203.22c.75-9.3,9-19.51,18.91-22.21,5.07-1.38,10.06-1.79,15,.78s5.12,2.2,5.23-3.23c.25-11.93,7-21.15,18.16-24.68,15.33-4.87,32,7.29,31.89,23.31,0,3.32-.13,6.65-.21,10-2.74,3.52-6.74,2.89-10.46,3.18a50.51,50.51,0,0,0-26.7,9.22C41,203.88,33.39,211.75,27.65,221.7a19.66,19.66,0,0,0-4.19,10.38C23.31,233.51,23.93,235.62,21.39,235.82Z"/>
            <path class="cls-1"
                  d="M536.19,179.06c-7.61-4-14.78-8.3-17.6-17.27-3-9.66,0-20.93,7.68-27.11a25.78,25.78,0,0,1,29.86-2.12c5.22,3.2,5.53,3.1,7.55-2.56,4.84-13.5,19-21,31.31-16.67,14.16,5,21.07,19.14,16.25,33.23-.26.79-.61,1.54-.91,2.32-3.24,2.47-6.55.11-9.83.17-6.67-1.47-13.13-.54-19.51,1.62a36.82,36.82,0,0,1-5.77,1.42c-3.31,0-6,1.59-8.53,3.46-8.15,4.14-15.69,9.1-21.79,16C541.58,173.59,540.58,178.3,536.19,179.06Z"/>
            <path class="cls-8"
                  d="M544,171c6-7.35,13.71-12.46,22.3-16.31a4.06,4.06,0,0,1,3.49,1.09c14.48,16.13,25.85,34.07,32.23,54.95.68,2.22,1.68,4.38.82,6.78-7.95,5.71-16.4,10.29-26.36,11.33-1.31-.73-1.48-2.12-1.89-3.36a137.73,137.73,0,0,0-27-48.17C546,175.53,543.93,173.82,544,171Z"/>
            <path class="cls-8"
                  d="M51.13,199c7.74-6.83,17.17-9,27.09-9.83,1.62,1.4,2,3.38,2.44,5.31,4.19,18.53,12.46,35.16,23.6,50.44a9,9,0,0,1,2.14,4.4c-7.22,6.72-15.34,11.89-25,14.39-1.88-.21-2.77-1.71-3.76-3A146.11,146.11,0,0,1,51,203.3C50.69,201.86,50.12,200.39,51.13,199Z"/>
            <path class="cls-8"
                  d="M262,35.14c10.17-1.68,19.11,2.29,28.07,6.16.74,2.26-.34,4.25-1.07,6.23-5.4,14.78-7.21,30.21-8.33,45.76a35.55,35.55,0,0,0,.58,7.42c.31,2.27.81,4.63-1,6.59-9.48,1.43-18.91,1.83-28.14-1.47-1.89-2.37-2.07-5.25-2.21-8a146.69,146.69,0,0,1,8-55.51C258.74,39.68,259.26,36.7,262,35.14Z"/>
            <path class="cls-9"
                  d="M51.13,199a155.25,155.25,0,0,0,30.28,64.71c-11,4.83-22.36,6.46-34.21,3.94-8.63-10.41-13.79-22.6-18-35.26-1.22-3.68-3.69-7.22-2.27-11.46C32.42,210.74,39.86,202.74,51.13,199Z"/>
            <path class="cls-9"
                  d="M262,35.14c-7.67,19.37-11.64,39.4-10.78,60.29.15,3.47.56,6.93.85,10.4-12-2-22.52-6.89-31.06-15.7-2.63-5.87-.22-11.8,0-17.64.42-9.62,3.15-18.92,5.6-28.22a9.23,9.23,0,0,1,2.47-4.22C239.59,34.93,250.47,32.79,262,35.14Z"/>
            <path class="cls-9"
                  d="M602.8,217.54a142,142,0,0,0-31.59-57.95,29.43,29.43,0,0,1-2.24-3.23c.81-2.73,3.59-3.46,5.31-5.26,8.47-2.35,16.82-5.49,25.88-3.61,11,11.93,18.89,25.76,25,40.69a3.93,3.93,0,0,1,.18,2.9C621.09,202.67,612.81,210.84,602.8,217.54Z"/>
            <path class="cls-3"
                  d="M601.13,506.94c-5.41.9-9.4,5.33-14.9,6a4,4,0,0,1-1.24-2.64c-4.31-23.06-12.48-44.91-22.34-66-7.51-16.06-16-31.77-27.08-45.87-1.89-2.41-4.06-4.92-3.35-8.46l4.21-6.14c26,26.42,42.8,58.4,55.65,92.69C595.79,486.42,599.71,496.33,601.13,506.94Z"/>
            <path class="cls-9"
                  d="M544,171c13.94,15.62,25,32.92,31.4,53,.5,1.56.73,3.21,1.08,4.81-11.18,4-22.15,3.71-32.75-1.83-12.44-6.49-17.24-17.63-13.87-31.3,1.44-5.84,4.41-11.06,6.37-16.68Z"/>
            <path class="cls-9"
                  d="M280.24,107.3a141.45,141.45,0,0,1,9-64.23c.24-.61.57-1.18.86-1.77,3.37.48,5.45,3.94,9,3.91.92,2.48,3,3.93,5,5.45,19.14,14.69,17.17,39.54-4.09,50.78C293.85,104.7,287.53,107.71,280.24,107.3Z"/>
            <path class="cls-9"
                  d="M106.4,249.3c-14.65-17.59-23.79-37.76-28.18-60.15,3.63-.58,7.47-.05,10.85-2,2.21,1.79,4.87,1.76,7.51,2,18.24,1.89,29.82,15.91,26.93,32.37-1.52,8.61-5.74,15.8-11.38,22.25C110.39,245.81,108.32,247.49,106.4,249.3Z"/>
            <path class="cls-10"
                  d="M437.28,255c1.69-4.71,1.37-10.15,5-14.18,24.66,6.46,48.58,14.66,69.67,29.54,9.36,6.61,17.51,14.27,21.72,25.32,3.58,9.4,3.24,18.46-2.24,27.11-.23-11.37-1.26-22.62-7.54-32.5-8.95-14-22.21-20.85-38.59-22-5-.35-8.82,2.37-12.76,4.79-2.23,1.33-3.92-.16-5.32-1.38-7.63-6.64-16.89-10.19-26.05-13.91C439.63,257.19,438.05,256.7,437.28,255Z"/>
            <path class="cls-8"
                  d="M625.35,191.08a190.92,190.92,0,0,0-24.51-41.79,6.58,6.58,0,0,1-.68-1.8l10.16,1.39c4,2.62,8.42,4.53,12.14,7.73,2.35,2,5.37-.25,8.1-.35,2.89-.11,6.73-2.95,8.25-.55,1.3,2.07-3,4.09-4.61,6.27-3.64,4.85-5.71,10.06-5.07,16.2C629.64,183,628.74,187.4,625.35,191.08Z"/>
            <path class="cls-8"
                  d="M229.14,40.05A221.75,221.75,0,0,0,221,90.13a27.88,27.88,0,0,1-10-15,10.19,10.19,0,0,0-6.44-7.48c-3.46-1.49-6.67-3.57-11.1-6,3.42-.52,5.72-1.06,8-1.18,6.41-.34,10.89-3.44,13.88-9,1.17-2.18,2.7-4.16,4.06-6.23C223,44,225.35,40.66,229.14,40.05Z"/>
            <path class="cls-8"
                  d="M27,220.91a152.2,152.2,0,0,0,18.43,42.68,29.41,29.41,0,0,1,1.81,4c-6.94-1.28-13.37-3.69-18.5-8.76-2-2-4.34-2-6.89-1.52a38.1,38.1,0,0,1-13,.41c8.64-5.56,12.59-12.72,12.54-21.94C22.26,230.48,22.41,224.87,27,220.91Z"/>
            <path class="cls-5"
                  d="M392.16,230.74l-3,13.3a2.63,2.63,0,0,1-2.91.33c-.94-4.33-5.41-4.88-8-7.42,1.54-2.79,3.69-1.81,6-1.15,1.5.43,3.53,2.19,4.66-.41s-1.78-2.09-2.73-3.11c-.66-.72-1.26-1.48-1.89-2.23C386.93,229.78,389.42,231.68,392.16,230.74Z"/>
            <path class="cls-5" d="M328.34,226l-34.59,0A254.32,254.32,0,0,1,328.34,226Z"/>
            <path class="cls-5" d="M157.24,247.29c-2.59,4.75-4.09,5.29-7.09,2.51Z"/>
            <path class="cls-5"
                  d="M266.22,227.15c-1.05,1.5-1.92,3.22-4.22,1.41-1.37-1.09-3.21-.41-4.83-.58A24.25,24.25,0,0,1,266.22,227.15Z"/>
            <path class="cls-5" d="M374.44,228.93c-2.35-.69-5.28,3.74-7.19-.81A14.91,14.91,0,0,1,374.44,228.93Z"/>
            <path class="cls-5" d="M167.21,244.18c-1.6.82-1.94,5.49-5.05,1.64A10.56,10.56,0,0,1,167.21,244.18Z"/>
            <path class="cls-5" d="M237.22,230.07c-1.52,4.13-4.05,1-6.18.86A11.39,11.39,0,0,1,237.22,230.07Z"/>
            <path class="cls-11"
                  d="M56.23,704a265.41,265.41,0,0,1-21.5-45.33c-4.73-13.39-7.61-27.32-9.62-41.45-1.93-13.55-1.86-27.11-1.87-40.7a15.07,15.07,0,0,1,.11-4C27,559.27,26.41,545.24,30.22,532c1.28-4.44,2.05-9,3.11-13.53A4.05,4.05,0,0,1,37.12,515c7.07.55,13.48,3.5,19.88,6,48.25,19.17,98.62,29.24,149.9,35.5,22.65,2.76,45.4,4,68.19,5.2,21.5,1.14,43,1.22,64.44.53a815.15,815.15,0,0,0,89-7.43c40.19-5.73,79.71-14.25,118.24-27.12,10.59-3.54,20.85-8,31.27-12,1.93-.74,3.89-2.19,6.14-.77,3.56-.25,4.49,2.19,5,5,2.65,15.12,6.38,30.16,7.6,45.4a264.1,264.1,0,0,1-.31,44.81,196,196,0,0,1-8.4,41.75c-5.33,16.8-11.86,33.1-21.46,48a6.23,6.23,0,0,0-1.38,4.12l-2,1.92c-11.32,6.5-23.61,10.79-35.73,15.44A651.54,651.54,0,0,1,398,756.76c-17.91,2.9-35.95,4.82-54.1,5.94a604.18,604.18,0,0,1-60.93.41c-25.13-1-50.06-4.44-74.82-9.1A662.44,662.44,0,0,1,89.69,719.89c-8.23-3.2-16.44-6.46-24.58-9.88a28.61,28.61,0,0,1-6.88-4Z"/>
            <path class="cls-5"
                  d="M58.23,706c13.3,5.19,26.57,10.48,39.93,15.55a657.22,657.22,0,0,0,125,33.59,543.7,543.7,0,0,0,114.37,6.52c46-2.06,91-10.47,135.24-23.35A723,723,0,0,0,558,707.49c1.67-.72,3.28-1.67,5.21-1.52C552,721.42,540,736.31,525.62,749c-21.7,19.21-45.17,35.72-71.94,47.55a402.19,402.19,0,0,1-60.16,20.72,303,303,0,0,1-45.36,7.88c-13.91,1.49-27.8,1.68-41.74,1.93-22.83.4-45.25-2.94-67.47-7.41a321.19,321.19,0,0,1-84.3-29.53,283.11,283.11,0,0,1-57.29-39.3c-14-12.26-25.86-26.16-36.83-41A41,41,0,0,1,58.23,706Z"/>
            <path class="cls-5"
                  d="M584.22,515c-18,6.83-35.81,14.29-54.37,19.73A699.6,699.6,0,0,1,437.93,555a839.78,839.78,0,0,1-90.84,8.34c-21.15.88-42.3,1.15-63.42.41-69.38-2.42-137.8-11.12-204.1-32.82-13.12-4.3-25.71-10.09-39-14A19.05,19.05,0,0,1,37.12,515L35.23,513c1.11-10.62,4.87-20.58,7.88-30.7a337,337,0,0,1,24.42-60.91,263.76,263.76,0,0,1,23.9-37.78c2.11-2.76,4.13-3.53,7-.94A124.58,124.58,0,0,0,130.1,403.9a310.24,310.24,0,0,0,74.75,23.17,515.57,515.57,0,0,0,56,7.21c5.84.38,12-.48,17.7,1.83a5,5,0,0,1,.81,4.25c-2.08,12.94,3.32,22.43,13.59,29.7,14.22,8.81,29.36,7.49,41.63-3.65,10.92-7.79,17-18.41,18.45-31.71.16-1.45,0-3.06,1.62-3.92,2.26,1.85,4.64,2.35,7.72,2.12,35.95-2.7,71.15-9.18,105.28-20.85a158.7,158.7,0,0,0,24.66-10.64,18.73,18.73,0,0,1,4.94-2.31c12.12,4.6,22.76,2.53,31.75-7,.9-.95,1.79-2,3.27-2.11,5,10.15,12.41,18.68,18.12,28.39A324.11,324.11,0,0,1,586,508a25.5,25.5,0,0,1,.19,5Z"/>
            <path class="cls-4"
                  d="M354.43,431c-.55,15.08-6.26,27.43-19.05,36.05a1.6,1.6,0,0,1-2.58-.73c-.31-3.92,2.76-5.84,5-8.2,7.54-8,11.38-17.43,11.16-28.49-.11-5.37-2.67-9.91-4.62-14.67-.3-.74-.79-1.6-1.77-1.52-1.21.09-1.54,1.12-1.75,2.11a12,12,0,0,0,.28,4.46c3.18,18-4.66,31.27-18.41,41.87-2.51,1.93-5.41,3.3-7.92,5.23-1,.79-2.3,1.69-2,3.2s1.82,1.18,2.89,1.46,2.37.31,2.77,1.73c-3.83,4.18-8.61,2.39-13.06,1.93-4.67-.47-8.66-3.27-13.15-4.46-12.88-8.36-16.6-20.33-13.73-34.89,3.9-5.49,7.41-11.24,11.36-16.72,7-9.71,5.23-20.21.54-30.45-2.12-1.9-3.43-4.43-5.15-6.64a6.83,6.83,0,0,0-7.47-2.65c-3,.69-4.21,2.91-4.9,5.65-1,3.84-1,7.8-1.56,11.69-3.63,7.81-10.63,9.36-18,8.64-14.45-1.42-25.85-8-32.36-21.6-.5-1-1.16-2-1.74-3-1.31-5.94-.88-12-.88-18a5.07,5.07,0,0,1,.46-2.82c3-6.08,7.07-11.59,10.32-17.57,3.35-6.19,3.48-11.61-1.92-16.6a6.27,6.27,0,0,1-1.35-2.09c-.71-5.19.41-7.3,5.25-9.26A47.76,47.76,0,0,1,256.16,312c14.5,2.07,28.91,4.83,43.55,6,3.49.27,7,.62,10.46.55a461.4,461.4,0,0,1,51.38,2c1.67.15,3.35.2,4.6,1.56,11.07,2.19,22,1.06,32.72-2,8.18-2.31,16-5.9,24.55-7,5.12-2.73,9.44,0,13.89,2,5.93,6,10,12.75,8.39,21.71-.95,5.4-3.54,9.54-8.48,12.17-2.63,1.4-5,3.28-7.57,4.77-6.68,3.08-9.67,8.76-10.86,15.63-.56,3.26-1.16,6.52-1.55,9.82-2.47,10.31-9.48,15.77-19.46,17.63s-18.35-1.41-24.36-9.9c-1-1.72-2-3.46-3.13-5.08-4.81-6.71-9.74-8.9-16.54-7.16-7.17,1.83-11.66,6.08-12.08,13.84.46,7.88,3.38,14.93,7.58,21.43a44.83,44.83,0,0,1,5.87,15.3C355.54,427.25,355.91,429.27,354.43,431Z"/>
            <path class="cls-12"
                  d="M271.32,397c0-3.46-.22-6.94,0-10.39.21-3.83,1.53-7.37,5.7-8.35,3.89-.92,7.43-.3,9.78,3.75,1.31,2.27,3.05,4.28,3.62,6.94-3.56-.3-7.11-.17-10.7-.79-5.67-1-7.06.5-7.46,6.13C272.17,395.28,272.21,396.28,271.32,397Z"/>
            <path class="cls-3"
                  d="M354.43,431a46.72,46.72,0,0,0-7.73-22.56A37.73,37.73,0,0,1,340.38,388a2.38,2.38,0,0,1,2.38-1.5c9.68.34,19.26-1.28,28.92-1.32a3.58,3.58,0,0,1,2.29.87c11.36,16.69,38.43,11.16,42.37-7a7.59,7.59,0,0,1,4.46-2c20-3.35,39.3-9.38,58.23-16.62a11.15,11.15,0,0,1,3.8-1.11c1.84,0,3.5.29,2.47,2.84-.31,2.63-.57,5.26-.93,7.88-1.69,12.34,2.34,22.14,12.83,29.1-2.19,3.76-6.33,5-9.78,6.52a340.76,340.76,0,0,1-77,22.51c-13.19,2.21-26.44,3.88-39.67,5.72-4.24.6-8.59-.08-12.86,1.06C354.75,435.74,355.78,432.17,354.43,431Z"/>
            <path class="cls-3"
                  d="M437.06,316.12c-4.4-1.66-8.8-3.33-13.64-3-3.91-1.45-2.14-4.24-1.44-6.61q7.59-25.79,15.29-51.52c11.24,4.23,22.5,8.42,31.77,16.45a5.29,5.29,0,0,0,3.51,1.62,59.13,59.13,0,0,0-1.25,11.28c0,5.29-3.22,8.84-7.29,11.69-3.13,2.18-6.32,4.27-7.93,7.95.36,5-2.41,7.3-7,8.3C445,313.23,441.59,316.46,437.06,316.12Z"/>
            <path class="cls-5"
                  d="M485.3,362.12c-.46-2.58-1.91-2-3.67-1.33a311.36,311.36,0,0,1-50.2,15.6c-5,1.07-10.06,1.76-15.09,2.63a46.3,46.3,0,0,1,3.44-17.24,14.94,14.94,0,0,1,9.33-8.84c14.2-2,27.28-7.51,40.53-12.53,6-2.27,11.43-5.77,17.65-7.44,3,5.22,2.44,10.81,1.38,16.32C487.84,353.62,486.44,357.85,485.3,362.12Z"/>
            <path class="cls-13"
                  d="M487.29,333c-7.85,5.66-17,8.63-25.89,12a177.28,177.28,0,0,1-22,7.22c-3.52.84-6.6,3.17-10.26.75,1.73-1.25,3.44-2.55,5.21-3.74,12.29-8.28,13.94-17.87,5.12-29.92-.78-1.06-1.58-2.11-2.38-3.16,3.9-1.71,7.68-3.83,11.74-5s6.76-2.76,7.28-7.1c-.11,7.78,3.22,11.46,11.95,13C477.54,318.63,485.11,322.53,487.29,333Z"/>
            <path class="cls-14"
                  d="M534.4,371.46c.55,9.57-7.19,21.21-17.17,23a38,38,0,0,1-5.4.54,4.13,4.13,0,0,1-4.28-2.8,4.46,4.46,0,0,1,.95-5.07,40.25,40.25,0,0,1,3.62-3.42c11.54-8.77,14.13-16.1,10.55-30.07-.53-2.07-1-4.16-1.51-6.25-.36-1.51-1.7-3.34.76-4.16a4.25,4.25,0,0,1,5.27,1.51C532.47,351.85,534.29,359.89,534.4,371.46Z"/>
            <path class="cls-14"
                  d="M525.29,310.93A12.91,12.91,0,0,1,525,314c-.73,2.26-.92,4.94-4.47,5a5.47,5.47,0,0,1-5.87-4.32,69.44,69.44,0,0,1-2.33-11.11c-.91-7.46-3.82-13.56-10.33-17.78a24.17,24.17,0,0,1-5-4.8c-1.38-1.62-.86-3.46.35-5s2.55-1.06,4-.45C515.69,281.5,523.66,294.46,525.29,310.93Z"/>
            <path class="cls-15"
                  d="M227.45,324.94c6.39,6,7.16,9.53,3.38,17.05a172.31,172.31,0,0,1-11.56,19.08c-9.46.06-18.25-3.33-27.3-5.34-23.74-5.29-46.35-13.44-66.73-26.92-11.37-7.51-18.24-17.75-17-32.17A23.12,23.12,0,0,1,113.53,284a77.88,77.88,0,0,1,29.62-22.41,305.12,305.12,0,0,1,88.06-23.86c5.88-.68,11.77-1.35,17.64-2.18a4.38,4.38,0,0,1,3.37.44h3a10,10,0,0,1,9-1h6a14.84,14.84,0,0,1,11-1h8a92.2,92.2,0,0,1,37,0h11c4.74-.84,9.45-1.13,14,1h6a12.48,12.48,0,0,1,10,1h2c2.85-1.19,5.43-.29,8,1h1c3.47,1.42,9.22.25,8,7-1.64,1.69-3.67,1.28-5.64,1-27.43-3.75-55-5.6-82.67-4.41C260,242.2,222.08,245,185.48,256.44,174,260,162.77,264.29,153.31,272c-10.74,8.78-10.5,19,.74,27.25,12,8.83,25.75,13.84,40.06,17.45,9.2,2.33,18.36,4.86,27.79,6.13A11.29,11.29,0,0,1,227.45,324.94Z"/>
            <path class="cls-5"
                  d="M252.22,236c-9.14,1.35-18.27,2.81-27.43,4a288.17,288.17,0,0,0-67.69,17.27c-14.44,5.64-28.17,12.53-39.46,23.71-12.4,12.27-10.06,28.57-.16,39.8,5.28,6,12.29,9.53,19.06,13.4,19.25,11,40.38,16.63,61.66,22,7,1.78,14.33,2.13,21.07,4.92,0,.8,0,1.6-.93,2-13.21-2.17-26.1-5.76-39-9.11-19.84-5.14-38.83-12.74-55.65-24.52C112,321.26,104.84,310,107.19,294.6a21.47,21.47,0,0,1,4.53-10.35,82,82,0,0,1,30.82-23.94c25.46-11.21,52-19.2,79.83-22.43,7.35-.85,14.6-2.3,22.08-2.42C247.12,235.42,249.75,232.35,252.22,236Z"/>
            <path class="cls-5"
                  d="M326.23,233.94l-37,0c2.41-5.23,7.65-3.12,11.36-3.65a66.82,66.82,0,0,1,22.1.78C324.32,231.4,326,231.85,326.23,233.94Z"/>
            <path class="cls-5" d="M351.23,235c-4.68-.12-9.42.69-14-1C341.52,229.92,347.86,230.38,351.23,235Z"/>
            <path class="cls-5" d="M281.22,234c-3.57,1.37-7.29,1.08-11,1C273.45,230.57,277.28,230.23,281.22,234Z"/>
            <path class="cls-5" d="M367.23,235.94c-3.38.15-6.74.24-10-1C361.16,231.25,364,231.53,367.23,235.94Z"/>
            <path class="cls-5" d="M264.23,235a21.31,21.31,0,0,1-9,1C257.81,231.26,261.19,230.87,264.23,235Z"/>
            <path class="cls-5" d="M377.22,237a18.16,18.16,0,0,1-8-1C372.4,232.35,374.93,233.64,377.22,237Z"/>
            <path class="cls-3"
                  d="M227.45,324.94c-13.73-1.34-26.95-5-40.16-8.75-12.72-3.6-24.72-8.61-35.29-16.72-11.07-8.51-10.56-19.9-.13-28.25,11.64-9.33,25.48-14.1,39.58-18.06,19.61-5.51,39.69-8.73,59.89-11,11.51-1.3,23.19-1,34.7-2.26,11.81-1.3,23.6-1,35.37-.78,17.53.38,35.07,1,52.46,3.79,4.07.65,8.23.73,12.35,1.07l2.94.07q-6.95,27.86-13.89,55.7c-1.44,5.76-3.46,11.37-4.21,17.3-.36,2.87-2.88,3.74-4.91,5-36.76-2.43-73.81-.88-110.19-8.46-8.11-1.69-16.23-.59-24,2.33C226.57,318,225.85,319.47,227.45,324.94Z"/>
            <path class="cls-16"
                  d="M484.18,74.36c.52,5.41-1.19,10.33-2.74,15.21-8.95,28.15-18.34,56.18-27,84.43-10.11,33-19.62,66.12-29.39,99.19-2.86,9.69-6.73,19.08-8.45,29.09a6.23,6.23,0,0,1-5.65,5.54c-8.72.93-17.48,1.4-26.21,2.21-4.5.42-5.13-1.87-4.22-5.44,2.36-9.14,4.82-18.26,7.13-27.41,8.82-35,18-70,26.3-105.08,8.49-35.73,16.15-71.66,24.22-107.49,2.66-11.81,11.94-17.92,22.6-18.37,9.55-.39,16.41,3.44,21.23,15.61C483.58,65.83,484.76,70.06,484.18,74.36Z"/>
            <path class="cls-17"
                  d="M574.28,151.1c-.44,3.1-3.26,3.78-5.31,5.25l-2.71-1.63C568.49,152.52,570.79,150.5,574.28,151.1Z"/>
            <path class="cls-18"
                  d="M541.11,192.58c3.51,0,5.35,1.5,5.22,4.84-.1,2.9-1.51,4.67-4.63,4.74s-5.14-1.44-5.24-4.66S538.12,192.59,541.11,192.58Z"/>
            <path class="cls-18"
                  d="M306.41,64.68c-.15,3.4-1.81,5.19-5,5.11s-4.69-2.11-4.56-5.26c.12-3,1.62-4.53,4.71-4.55C304.9,60,306.39,61.65,306.41,64.68Z"/>
            <path class="cls-19"
                  d="M105.39,201.7c0,3.26-1.36,5.21-4.69,5.28-3,.07-4.71-1.42-4.85-4.47s1.09-5.27,4.42-5.46S105.26,198.52,105.39,201.7Z"/>
            <path class="cls-20"
                  d="M166.84,639c-9.81,0-9.78,0-12,7.6-2.55,8.75-5.1,17.51-7.79,26.22-.89,2.89-1.22,6.56-5.78,6.15a9.52,9.52,0,0,1-8-8.28,10.51,10.51,0,0,1,.77-4.38c8.3-22,12.4-45,17.19-67.82.91-4.38,2.14-8.69,3-13.08,1.24-6.39,6.27-8.48,11.19-4.31,3.28,2.77,4.67,6.32,3,10.7-2.94,8-4.74,16.22-6.76,24.43-1.81,7.33-.86,8.5,6.55,8.77,8.84.31,17.39,2.23,25.84,4.73,7.28,2.15,8,1.74,10.48-5.41,2.87-8.31,5.57-16.69,8.54-25,1.07-3,1.75-7.22,6.34-6.2,4.3,1,6.33,4.52,6.83,8.77a16.44,16.44,0,0,1-1.25,8.78c-10.8,24.08-16.45,49.59-20.84,75.45A36.54,36.54,0,0,1,203,691c-.91,2.94-2.6,5.32-6,4.68s-6.89-2-6.74-6.59c.31-10,3.58-19.52,5.21-29.3a62.2,62.2,0,0,1,2.22-9.67c1.17-3.43-.21-5.18-3.24-6C184.63,641.69,174.78,639.4,166.84,639Z"/>
            <path class="cls-20"
                  d="M445.23,618.93c0-2.5-.09-5,0-7.49.22-5.1,2.55-7.4,7.35-7.44,5,0,8.25,2.9,8.65,7.68.46,5.53-.82,10.91-1.31,16.35-1,11.54-2.14,23.09-3.8,34.56-1.87,12.95-.63,26.2-3.86,39-2.54,10.1-10,16.48-20.38,17.44-5.28.49-8.59-2-9.6-7.17-1.41-7.29,3.41-13.67,10.79-13.87,4.42-.12,5.79-2.79,6-6.41.3-5,.09-10,1.06-14.89.8-4-1.33-6.91-4.14-9.58-11.19-10.68-22.35-21.4-31.33-34.13a11.77,11.77,0,0,1-2.6-6.82c-.07-3.58.39-6.75,4.32-8,4.79-1.54,8.91-.12,11,4.19,4.8,10.09,11.77,18.47,19.85,26,1.41,1.3,2.73,3.44,5,2.37,1.86-.86.8-3,1-4.52A246.33,246.33,0,0,0,445.23,618.93Z"/>
            <path class="cls-20"
                  d="M371.45,624A29.32,29.32,0,0,1,399,644.54c1.58,5.38-1,10.38-6,10.33-9.67-.09-18.58,3.17-27.74,5.35C354,662.9,354,663,359.17,673.59c1.94,4,3.2,8.47,8,10.34,7.33,2.89,16.86-.65,20.48-7.82a67.11,67.11,0,0,0,2.87-6.89c1.52-4.1,4.68-4.92,8.46-4.14s5.4,3.22,5.36,7.2c-.1,10.92-10.51,22.18-23.12,24.71-15.86,3.18-25.2-1.24-33.72-16.13-8.33-14.54-11.26-29.39-.22-43.78C353.82,628.52,361.13,622.56,371.45,624Z"/>
            <path class="cls-20"
                  d="M215.24,665.92a68.92,68.92,0,0,1,.89-11.89c3-16.65,15.64-24.11,30.61-25.94,15.47-1.89,22.5,2.56,30.23,20.73,6,14,3.58,27.95-2.35,41.53-4.71,10.8-21,13.63-30.41,12.34-7.59-1-14.18-4.46-20-9.37-6.7-5.61-8.35-13.28-8.91-21.41C215.12,669.92,215.24,667.92,215.24,665.92Z"/>
            <path class="cls-20"
                  d="M324.23,690.88c2-11.5.6-22.82-2.06-34s-6.53-12.46-15.93-6c-7.2,5-10.46,11-8.39,20.37,1.84,8.33,1.66,17.12,2.33,25.71.28,3.59-.05,6.79-4.8,7.07-5,.29-8.78-2.5-9.14-7-.69-8.76-1.69-17.52-1.8-26.28-.14-10.33-1.9-20.49-2.31-30.76-.15-3.75.42-7.08,4.34-8.64,3.65-1.46,6,.68,8,3.33,2.58,3.39,5.33,2.28,8.32.6,7.85-4.41,15.58-5.08,23.35.49,3.65,2.61,5.53,6.24,6.81,10.16,4.19,12.81,7.45,25.76,5.47,39.48-.41,2.87.55,5.92.64,8.89.2,6.07-2.45,9.73-6.81,9.67s-7.93-4.24-8-9.61C324.21,693.21,324.23,692.05,324.23,690.88Z"/>
            <path class="cls-21"
                  d="M333.2,466a2.46,2.46,0,0,0,2.18,1.08C325,478.69,306,480.42,292.23,471c2.73-.29,5.09.68,7.59,1.71,6,2.49,12.21,4,18.4.3-.14-.49-.25-1.27.13-1.38C323.41,470.05,327.41,465.63,333.2,466Z"/>
            <path class="cls-14"
                  d="M333.2,466l-15,7c-2.6-.51-6.59,1.65-7.53-1.8s2.86-5.17,5.58-6.64c9.9-5.33,16.76-13.44,21.78-23.31,3.44-6.79,2.16-13.95,1.75-21.05,0-.64-.48-1.27-.49-1.91-.06-2.61-.87-5.82,2.45-6.88,3.89-1.24,3.6,2.66,4.42,4.61,7.26,17.33,4.32,31.36-9.21,44.77A14,14,0,0,0,333.2,466Z"/>
            <path class="cls-14"
                  d="M416.16,359.49c-3.39,7.88-2,18.08-7.75,26.4-3.84,5.54-14,8.13-20.59,5.71-1.41-.52-2.7-1.53-2.44-3.35a3.8,3.8,0,0,1,2.9-3.09c1.41-.43,2.93-.46,4.37-.82,7.32-1.84,10.5-5.56,11.6-13,.81-5.41,2.13-10.66,5.81-15.05,1.38-1.65,2.9-1.42,4.47-1S416.25,357.09,416.16,359.49Z"/>
            <path class="cls-14"
                  d="M270.47,377.32c-3.76,6.1-.57,14.44-5.59,20.79-2.63,3.33-5.12,5.68-10,4.16-3.41-1.07-7.14-1-10.53-2.6-3-1.39-3.79-3.53-2.73-6.46s3.68-2.46,5.87-1.92c7.73,1.93,11.35-.29,12.83-8.13.49-2.6.71-5.27,1.41-7.81.64-2.3,1.9-4.59,4.77-4.23C269.62,371.51,269.89,374.28,270.47,377.32Z"/>
            <path class="cls-5"
                  d="M374,386.05A277.25,277.25,0,0,1,340.38,388c.55-6.78,3.75-11.51,10.37-13.79C361.31,370.56,368.43,374.15,374,386.05Z"/>
            <path class="cls-14"
                  d="M434.19,334.33c.08-8.46.11-8.56-8.41-11.2-1.91-.59-3.9-.83-3.28-3.28s2.82-2,4.61-1.7c10.5,1.8,16.46,11,13.43,20.4-.77,2.37-1.67,4.75-4.56,4.27s-1.47-3.22-1.76-5A21.37,21.37,0,0,1,434.19,334.33Z"/>
            <path class="cls-22"
                  d="M361.81,647.14c-2-.15-3.28.12-3.88-1.19-.47-1,.24-1.9.75-2.74,3.76-6.11,14.35-8.85,20.35-5.27,1,.61,2.06,1.26,2,2.58a2.34,2.34,0,0,1-1.74,2.22C373.25,644.32,367.14,645.81,361.81,647.14Z"/>
            <path class="cls-11"
                  d="M266.32,665.08a40.61,40.61,0,0,1-1.1,9.74c-3.33,13.91-15.18,14.81-24.08,12.51-9.3-2.4-14.12-9-14-18.65.16-9.95,1.65-19.56,12.08-24.27,14.14-6.37,26.79-2.68,27.06,16.09C266.34,661.66,266.32,662.82,266.32,665.08Z"/>
        </g>
    </g>
</svg>